# Blender v2.83.3 OBJ File: 'Main33.blend'
# www.blender.org
o Ball_Sphere.001
v 0.000000 0.057000 -0.098727
v 0.000000 0.015273 -0.057000
v -0.000000 0.228000 -0.000000
v 0.033504 0.212727 -0.046114
v 0.058030 0.171000 -0.079872
v 0.067008 0.114000 -0.092228
v 0.058030 0.057000 -0.079872
v 0.033504 0.015273 -0.046114
v 0.054210 0.212727 -0.017614
v 0.093895 0.171000 -0.030508
v 0.108420 0.114000 -0.035228
v 0.093895 0.057000 -0.030508
v 0.054210 0.015273 -0.017614
v 0.054210 0.212727 0.017614
v 0.093895 0.171000 0.030508
v 0.108420 0.114000 0.035228
v 0.093895 0.057000 0.030508
v 0.054210 0.015273 0.017614
v 0.033504 0.212727 0.046114
v 0.058030 0.171000 0.079872
v 0.067008 0.114000 0.092228
v 0.058030 0.057000 0.079872
v 0.033504 0.015273 0.046114
v 0.000000 0.212727 0.057000
v 0.000000 0.171000 0.098727
v -0.000000 0.114000 0.114000
v -0.000000 0.057000 0.098727
v 0.000000 0.015273 0.057000
v -0.033504 0.212727 0.046114
v -0.058030 0.171000 0.079872
v -0.067008 0.114000 0.092228
v -0.058030 0.057000 0.079872
v -0.033504 0.015273 0.046114
v 0.000000 0.000000 -0.000000
v -0.054210 0.212727 0.017614
v -0.093895 0.171000 0.030508
v -0.108420 0.114000 0.035228
v -0.093895 0.057000 0.030508
v -0.054210 0.015273 0.017614
v -0.054210 0.212727 -0.017614
v -0.093895 0.171000 -0.030508
v -0.108420 0.114000 -0.035228
v -0.093895 0.057000 -0.030508
v -0.054210 0.015273 -0.017614
v -0.033504 0.212727 -0.046114
v -0.058030 0.171000 -0.079872
v -0.067008 0.114000 -0.092228
v -0.058030 0.057000 -0.079872
v -0.033504 0.015273 -0.046114
v -0.000000 0.212727 -0.057000
v -0.000000 0.171000 -0.098727
v -0.000000 0.114000 -0.114000
vt 0.503045 0.423809
vt 0.503045 0.505118
vt 0.585823 0.505118
vt 0.598629 0.423809
vt 0.503045 0.564640
vt 0.503045 0.586426
vt 0.550837 0.564640
vt 0.503045 0.261191
vt 0.503045 0.282978
vt 0.550837 0.282978
vt 0.503045 0.342500
vt 0.585823 0.342500
vt 0.503045 0.034777
vt 0.547349 0.054974
vt 0.574731 0.054974
vt 0.579782 0.110152
vt 0.591654 0.185528
vt 0.646417 0.185528
vt 0.627209 0.110152
vt 0.579782 0.260903
vt 0.547349 0.316081
vt 0.574731 0.316081
vt 0.627209 0.260903
vt 0.503045 0.336278
vt 0.580374 0.282978
vt 0.580374 0.282978
vt 0.636983 0.342500
vt 0.657704 0.423809
vt 0.657704 0.423809
vt 0.636983 0.342500
vt 0.636983 0.505118
vt 0.580374 0.564640
vt 0.580374 0.564640
vt 0.636983 0.505118
vt 0.627209 0.110152
vt 0.646417 0.185528
vt 0.591654 0.185528
vt 0.579782 0.110152
vt 0.627209 0.260903
vt 0.574731 0.316081
vt 0.547349 0.316081
vt 0.579782 0.260903
vt 0.574731 0.054974
vt 0.547349 0.054974
vt 0.585823 0.505118
vt 0.550837 0.564640
vt 0.503045 0.564640
vt 0.503045 0.505118
vt 0.550837 0.282978
vt 0.585823 0.342500
vt 0.503045 0.342500
vt 0.503045 0.282978
vt 0.598629 0.423809
vt 0.503045 0.423809
vt 0.503045 0.054974
vt 0.503045 0.110152
vt 0.426308 0.110152
vt 0.458741 0.054974
vt 0.503045 0.185528
vt 0.503045 0.260903
vt 0.426308 0.260903
vt 0.414436 0.185528
vt 0.503045 0.316081
vt 0.458741 0.316081
vt 0.455253 0.282978
vt 0.420267 0.342500
vt 0.369107 0.342500
vt 0.425716 0.282978
vt 0.407461 0.423809
vt 0.420267 0.505118
vt 0.369107 0.505118
vt 0.348387 0.423809
vt 0.455253 0.564640
vt 0.425716 0.564640
vt 0.431359 0.054974
vt 0.378881 0.110152
vt 0.378881 0.110152
vt 0.431359 0.054974
vt 0.359673 0.185528
vt 0.378881 0.260903
vt 0.378881 0.260903
vt 0.359673 0.185528
vt 0.431359 0.316081
vt 0.431359 0.316081
vt 0.425716 0.282978
vt 0.369107 0.342500
vt 0.420267 0.342500
vt 0.455253 0.282978
vt 0.348387 0.423809
vt 0.369107 0.505118
vt 0.420267 0.505118
vt 0.407461 0.423809
vt 0.425716 0.564640
vt 0.455253 0.564640
vt 0.414436 0.185528
vt 0.426308 0.260903
vt 0.503045 0.260903
vt 0.503045 0.185528
vt 0.458741 0.316081
vt 0.503045 0.316081
vt 0.458741 0.054974
vt 0.503045 0.054974
vt 0.426308 0.110152
vt 0.503045 0.110152
vn 0.2994 0.2469 -0.9216
vn 0.0838 0.9625 -0.2579
vn 0.0838 -0.9625 -0.2579
vn 0.2994 -0.2469 -0.9216
vn 0.2239 0.6892 -0.6892
vn 0.2239 -0.6892 -0.6892
vn 0.2194 -0.9625 -0.1594
vn 0.7840 -0.2469 -0.5696
vn 0.5862 0.6892 -0.4259
vn 0.5862 -0.6892 -0.4259
vn 0.7840 0.2469 -0.5696
vn 0.2194 0.9625 -0.1594
vn 0.2712 -0.9625 -0.0000
vn 0.9690 -0.2469 0.0000
vn 0.7246 0.6892 0.0000
vn 0.7246 -0.6892 -0.0000
vn 0.9690 0.2469 0.0000
vn 0.2712 0.9625 0.0000
vn 0.7840 -0.2469 0.5696
vn 0.5862 0.6892 0.4259
vn 0.5862 -0.6892 0.4259
vn 0.7840 0.2469 0.5696
vn 0.2194 0.9625 0.1594
vn 0.2194 -0.9625 0.1594
vn 0.2239 0.6892 0.6892
vn 0.2239 -0.6892 0.6892
vn 0.2994 0.2469 0.9216
vn 0.0838 0.9625 0.2579
vn 0.0838 -0.9625 0.2579
vn 0.2994 -0.2469 0.9216
vn -0.2239 -0.6892 0.6892
vn -0.2994 0.2469 0.9216
vn -0.0838 0.9625 0.2579
vn -0.0838 -0.9625 0.2579
vn -0.2994 -0.2469 0.9216
vn -0.2239 0.6892 0.6892
vn -0.5862 -0.6892 0.4259
vn -0.7840 0.2469 0.5696
vn -0.2194 0.9625 0.1594
vn -0.2194 -0.9625 0.1594
vn -0.7840 -0.2469 0.5696
vn -0.5862 0.6892 0.4259
vn -0.7246 -0.6892 0.0000
vn -0.9690 0.2469 0.0000
vn -0.2712 0.9625 0.0000
vn -0.2712 -0.9625 0.0000
vn -0.9690 -0.2469 0.0000
vn -0.7246 0.6892 0.0000
vn -0.5862 -0.6892 -0.4259
vn -0.7840 0.2469 -0.5696
vn -0.2194 0.9625 -0.1594
vn -0.2194 -0.9625 -0.1594
vn -0.7840 -0.2469 -0.5696
vn -0.5862 0.6892 -0.4259
vn -0.2994 0.2469 -0.9216
vn -0.0838 0.9625 -0.2579
vn -0.0838 -0.9625 -0.2579
vn -0.2994 -0.2469 -0.9216
vn -0.2239 0.6892 -0.6892
vn -0.2239 -0.6892 -0.6892
s off
f 52/1/1 51/2/1 5/3/1 6/4/1
f 50/5/2 3/6/2 4/7/2
f 34/8/3 2/9/3 8/10/3
f 1/11/4 52/1/4 6/4/4 7/12/4
f 51/2/5 50/5/5 4/7/5 5/3/5
f 2/9/6 1/11/6 7/12/6 8/10/6
f 34/13/7 8/14/7 13/15/7
f 7/16/8 6/17/8 11/18/8 12/19/8
f 5/20/9 4/21/9 9/22/9 10/23/9
f 8/14/10 7/16/10 12/19/10 13/15/10
f 6/17/11 5/20/11 10/23/11 11/18/11
f 4/21/12 3/24/12 9/22/12
f 34/8/13 13/25/13 18/26/13
f 12/27/14 11/28/14 16/29/14 17/30/14
f 10/31/15 9/32/15 14/33/15 15/34/15
f 13/25/16 12/27/16 17/30/16 18/26/16
f 11/28/17 10/31/17 15/34/17 16/29/17
f 9/32/18 3/6/18 14/33/18
f 17/35/19 16/36/19 21/37/19 22/38/19
f 15/39/20 14/40/20 19/41/20 20/42/20
f 18/43/21 17/35/21 22/38/21 23/44/21
f 16/36/22 15/39/22 20/42/22 21/37/22
f 14/40/23 3/24/23 19/41/23
f 34/13/24 18/43/24 23/44/24
f 20/45/25 19/46/25 24/47/25 25/48/25
f 23/49/26 22/50/26 27/51/26 28/52/26
f 21/53/27 20/45/27 25/48/27 26/54/27
f 19/46/28 3/6/28 24/47/28
f 34/8/29 23/49/29 28/52/29
f 22/50/30 21/53/30 26/54/30 27/51/30
f 28/55/31 27/56/31 32/57/31 33/58/31
f 26/59/32 25/60/32 30/61/32 31/62/32
f 24/63/33 3/24/33 29/64/33
f 34/13/34 28/55/34 33/58/34
f 27/56/35 26/59/35 31/62/35 32/57/35
f 25/60/36 24/63/36 29/64/36 30/61/36
f 33/65/37 32/66/37 38/67/37 39/68/37
f 31/69/38 30/70/38 36/71/38 37/72/38
f 29/73/39 3/6/39 35/74/39
f 34/8/40 33/65/40 39/68/40
f 32/66/41 31/69/41 37/72/41 38/67/41
f 30/70/42 29/73/42 35/74/42 36/71/42
f 39/75/43 38/76/43 43/77/43 44/78/43
f 37/79/44 36/80/44 41/81/44 42/82/44
f 35/83/45 3/24/45 40/84/45
f 34/13/46 39/75/46 44/78/46
f 38/76/47 37/79/47 42/82/47 43/77/47
f 36/80/48 35/83/48 40/84/48 41/81/48
f 44/85/49 43/86/49 48/87/49 49/88/49
f 42/89/50 41/90/50 46/91/50 47/92/50
f 40/93/51 3/6/51 45/94/51
f 34/8/52 44/85/52 49/88/52
f 43/86/53 42/89/53 47/92/53 48/87/53
f 41/90/54 40/93/54 45/94/54 46/91/54
f 47/95/55 46/96/55 51/97/55 52/98/55
f 45/99/56 3/24/56 50/100/56
f 34/13/57 49/101/57 2/102/57
f 48/103/58 47/95/58 52/98/58 1/104/58
f 46/96/59 45/99/59 50/100/59 51/97/59
f 49/101/60 48/103/60 1/104/60 2/102/60
