# Blender v2.83.3 OBJ File: 'Main34.blend'
# www.blender.org
o Bottle_03_Cylinder.030
v 0.000012 0.126841 -0.013975
v 0.007001 0.126841 -0.012102
v 0.012117 0.126841 -0.006986
v 0.013990 0.126841 0.000003
v 0.012117 0.126841 0.006992
v 0.007001 0.126841 0.012108
v 0.000012 0.126841 0.013980
v -0.006977 0.126841 0.012108
v -0.012093 0.126841 0.006992
v -0.013965 0.126841 0.000003
v -0.012093 0.126841 -0.006986
v -0.006977 0.126841 -0.012102
v 0.022447 0.000166 -0.038855
v 0.000012 0.000166 -0.044866
v 0.038870 0.000166 -0.022431
v 0.044881 0.000166 0.000003
v 0.038870 0.000166 0.022437
v 0.022447 0.000166 0.038860
v 0.000012 0.000166 0.044872
v -0.022422 0.000166 0.038860
v -0.038845 0.000166 0.022437
v -0.044856 0.000166 0.000003
v -0.038845 0.000166 -0.022431
v -0.022422 0.000166 -0.038855
v 0.020652 0.002355 -0.035747
v 0.000012 0.002355 -0.041277
v 0.035762 0.002355 -0.020637
v 0.041292 0.002355 0.000003
v 0.035762 0.002355 0.020643
v 0.020652 0.002355 0.035752
v 0.000012 0.002355 0.041283
v -0.020628 0.002355 0.035752
v -0.035737 0.002355 0.020643
v -0.041268 0.002355 0.000003
v -0.035737 0.002355 -0.020637
v -0.020628 0.002355 -0.035747
v 0.006712 0.126981 -0.011601
v 0.000012 0.126981 -0.013396
v 0.011616 0.126981 -0.006697
v 0.013411 0.126981 0.000003
v 0.011616 0.126981 0.006702
v 0.006712 0.126981 0.011607
v 0.000012 0.126981 0.013402
v -0.006687 0.126981 0.011607
v -0.011592 0.126981 0.006702
v -0.013387 0.126981 0.000003
v -0.011592 0.126981 -0.006697
v -0.006687 0.126981 -0.011601
v 0.000012 0.090405 -0.013430
v 0.006729 0.090405 -0.011630
v 0.011645 0.090405 -0.006714
v 0.013445 0.090405 0.000003
v 0.011645 0.090405 0.006719
v 0.006729 0.090405 0.011636
v 0.000012 0.090405 0.013436
v -0.006704 0.090405 0.011636
v -0.011621 0.090405 0.006719
v -0.013421 0.090405 0.000003
v -0.011621 0.090405 -0.006714
v -0.006704 0.090405 -0.011630
v 0.000012 0.090573 -0.012802
v 0.006414 0.090573 -0.011086
v 0.011101 0.090573 -0.006399
v 0.012817 0.090573 0.000003
v 0.011101 0.090573 0.006405
v 0.006414 0.090573 0.011092
v 0.000012 0.090573 0.012807
v -0.006390 0.090573 0.011092
v -0.011077 0.090573 0.006405
v -0.012792 0.090573 0.000003
v -0.011077 0.090573 -0.006399
v -0.006390 0.090573 -0.011086
v 0.000012 0.065842 -0.039675
v 0.019851 0.065842 -0.034359
v 0.034374 0.065842 -0.019836
v 0.039690 0.065842 0.000003
v 0.034374 0.065842 0.019842
v 0.019851 0.065842 0.034365
v 0.000012 0.065842 0.039681
v -0.019827 0.065842 0.034365
v -0.034350 0.065842 0.019842
v -0.039666 0.065842 0.000003
v -0.034350 0.065842 -0.019836
v -0.019827 0.065842 -0.034359
v 0.000012 0.065195 -0.045603
v 0.022815 0.065195 -0.039493
v 0.039508 0.065195 -0.022800
v 0.045618 0.065195 0.000003
v 0.039508 0.065195 0.022806
v 0.022815 0.065195 0.039498
v 0.000012 0.065195 0.045608
v -0.022790 0.065195 0.039498
v -0.039483 0.065195 0.022806
v -0.045593 0.065195 0.000003
v -0.039483 0.065195 -0.022800
v -0.022790 0.065195 -0.039493
v 0.000012 0.000166 0.000003
v 0.000012 0.002355 0.000003
vt 0.535422 0.345879
vt 0.535424 0.119479
vt 0.490726 0.119479
vt 0.508855 0.345880
vt 0.458006 0.119479
vt 0.489400 0.345880
vt 0.446030 0.119479
vt 0.482277 0.345860
vt 0.458006 0.119479
vt 0.489399 0.345879
vt 0.490726 0.119479
vt 0.508856 0.345878
vt 0.535424 0.119479
vt 0.535426 0.345878
vt 0.580119 0.119479
vt 0.561992 0.345870
vt 0.612839 0.119479
vt 0.581445 0.345879
vt 0.624815 0.119479
vt 0.588567 0.345879
vt 0.612839 0.119479
vt 0.581445 0.345879
vt 0.580119 0.119479
vt 0.561992 0.345877
vt 0.512260 0.137200
vt 0.452242 0.142127
vt 0.449454 0.120937
vt 0.512258 0.120937
vt 0.408306 0.142127
vt 0.403479 0.120937
vt 0.392224 0.142127
vt 0.386649 0.120937
vt 0.408306 0.142127
vt 0.403479 0.120937
vt 0.452240 0.142127
vt 0.449454 0.120937
vt 0.512259 0.142127
vt 0.512258 0.120937
vt 0.572929 0.137164
vt 0.575063 0.120937
vt 0.617334 0.137194
vt 0.621038 0.120937
vt 0.633592 0.137187
vt 0.637868 0.120937
vt 0.617336 0.137187
vt 0.621038 0.120937
vt 0.572923 0.137200
vt 0.575063 0.120937
vt 0.579662 0.515030
vt 0.572867 0.515030
vt 0.572732 0.514069
vt 0.579508 0.514069
vt 0.528940 0.515030
vt 0.503579 0.515030
vt 0.503655 0.514069
vt 0.528940 0.514069
vt 0.478217 0.515030
vt 0.485013 0.515030
vt 0.485147 0.514069
vt 0.478373 0.514069
vt 0.572867 0.515030
vt 0.572732 0.514069
vt 0.554302 0.515030
vt 0.554225 0.514069
vt 0.485013 0.515030
vt 0.485147 0.514069
vt 0.554302 0.515030
vt 0.554225 0.514069
vt 0.503579 0.515030
vt 0.528940 0.515030
vt 0.528940 0.514069
vt 0.503655 0.514069
vt 0.566612 0.285473
vt 0.535423 0.285474
vt 0.589448 0.285474
vt 0.597807 0.285474
vt 0.589447 0.285474
vt 0.566612 0.285471
vt 0.535425 0.285474
vt 0.504234 0.285474
vt 0.481398 0.285474
vt 0.473038 0.285465
vt 0.481398 0.285475
vt 0.504234 0.285475
vt 0.567771 0.176368
vt 0.512260 0.176368
vt 0.608413 0.176361
vt 0.623286 0.176361
vt 0.608412 0.176365
vt 0.567776 0.176350
vt 0.512257 0.178831
vt 0.457068 0.178831
vt 0.416667 0.178832
vt 0.401879 0.178831
vt 0.416666 0.178831
vt 0.457069 0.178832
vt 0.512259 0.215535
vt 0.461897 0.215535
vt 0.425028 0.215535
vt 0.411537 0.215535
vt 0.425028 0.215535
vt 0.461608 0.212930
vt 0.510028 0.218546
vt 0.558448 0.212930
vt 0.599490 0.215535
vt 0.612981 0.215535
vt 0.599490 0.215535
vt 0.562620 0.215535
vt 0.535424 0.225069
vt 0.499614 0.225069
vt 0.473394 0.225069
vt 0.463799 0.225069
vt 0.473394 0.225069
vt 0.499614 0.225069
vt 0.535424 0.225069
vt 0.571231 0.225069
vt 0.597450 0.225069
vt 0.607046 0.225069
vt 0.597450 0.225069
vt 0.571231 0.225069
vt 0.476554 0.063661
vt 0.450336 0.063661
vt 0.512364 0.063661
vt 0.440741 0.063661
vt 0.450336 0.063661
vt 0.476554 0.063661
vt 0.512366 0.063661
vt 0.548173 0.063661
vt 0.574391 0.063661
vt 0.583987 0.063661
vt 0.574391 0.063661
vt 0.548173 0.063661
vt 0.512366 0.063661
vt 0.461260 0.050137
vt 0.507354 0.037786
vt 0.508022 0.130191
vt 0.553446 0.050137
vt 0.587188 0.083878
vt 0.599538 0.129972
vt 0.587188 0.176064
vt 0.427518 0.176064
vt 0.415168 0.129972
vt 0.427518 0.083879
vn 0.2588 -0.0144 -0.9658
vn 0.7070 -0.0144 -0.7070
vn 0.9658 -0.0144 -0.2588
vn 0.9658 -0.0144 0.2588
vn 0.7070 -0.0144 0.7070
vn 0.2588 -0.0144 0.9658
vn -0.2588 -0.0144 0.9658
vn -0.7070 -0.0144 0.7070
vn -0.9658 -0.0144 0.2588
vn -0.9658 -0.0144 -0.2588
vn -0.7070 -0.0144 -0.7070
vn -0.2588 -0.0144 -0.9658
vn -0.2588 0.0158 0.9658
vn -0.7070 0.0158 0.7070
vn -0.9658 0.0158 0.2588
vn -0.9658 0.0158 -0.2588
vn -0.7070 0.0158 -0.7070
vn -0.2588 0.0158 -0.9658
vn 0.2588 0.0158 -0.9658
vn 0.7070 0.0158 -0.7070
vn 0.9658 0.0158 -0.2588
vn 0.9658 0.0158 0.2588
vn 0.7070 0.0158 0.7070
vn 0.2588 0.0158 0.9658
vn -0.2355 0.9698 0.0631
vn 0.0631 0.9698 0.2355
vn 0.2355 0.9698 -0.0631
vn -0.2355 0.9698 -0.0631
vn -0.0631 0.9698 0.2355
vn 0.2355 0.9698 0.0631
vn -0.1724 0.9698 -0.1724
vn 0.0631 0.9698 -0.2355
vn -0.1724 0.9698 0.1724
vn 0.1724 0.9698 0.1724
vn -0.0631 0.9698 -0.2355
vn 0.1724 0.9698 -0.1724
vn -0.1631 0.7766 -0.6085
vn -0.4455 0.7766 -0.4455
vn -0.6085 0.7766 -0.1631
vn -0.6085 0.7766 0.1631
vn -0.4455 0.7766 0.4455
vn -0.1631 0.7766 0.6085
vn 0.1631 0.7766 0.6085
vn 0.4455 0.7766 0.4455
vn 0.6085 0.7766 0.1631
vn 0.6085 0.7766 -0.1631
vn 0.4455 0.7766 -0.4455
vn 0.1631 0.7766 -0.6085
vn 0.1785 -0.7240 0.6663
vn 0.4878 -0.7240 0.4878
vn 0.6663 -0.7240 0.1785
vn 0.6663 -0.7240 -0.1785
vn 0.4878 -0.7240 -0.4878
vn 0.1785 -0.7240 -0.6663
vn -0.1785 -0.7240 -0.6663
vn -0.4878 -0.7240 -0.4878
vn -0.6663 -0.7240 -0.1785
vn -0.6663 -0.7240 0.1785
vn -0.4878 -0.7240 0.4878
vn -0.1785 -0.7240 0.6663
vn -0.2587 -0.0244 0.9656
vn -0.7069 -0.0244 0.7069
vn -0.9656 -0.0244 0.2587
vn -0.9656 -0.0244 -0.2587
vn -0.7069 -0.0244 -0.7069
vn -0.2587 -0.0244 -0.9656
vn 0.2587 -0.0244 -0.9656
vn 0.7069 -0.0244 -0.7069
vn 0.9656 -0.0244 -0.2587
vn 0.9656 -0.0244 0.2587
vn 0.7069 -0.0244 0.7069
vn 0.2587 -0.0244 0.9656
vn 0.2588 -0.0109 -0.9659
vn 0.7071 -0.0109 -0.7071
vn 0.9659 -0.0109 -0.2588
vn 0.9659 -0.0109 0.2588
vn 0.7071 -0.0109 0.7071
vn 0.2588 -0.0109 0.9659
vn -0.2588 -0.0109 0.9659
vn -0.7071 -0.0109 0.7071
vn -0.9659 -0.0109 0.2588
vn -0.9659 -0.0109 -0.2588
vn -0.7071 -0.0109 -0.7071
vn -0.2588 -0.0109 -0.9659
vn 0.0000 -1.0000 -0.0000
vn -0.0000 1.0000 0.0000
s off
f 49/1/1 1/2/1 2/3/1 50/4/1
f 50/4/2 2/3/2 3/5/2 51/6/2
f 51/6/3 3/5/3 4/7/3 52/8/3
f 52/8/4 4/7/4 5/9/4 53/10/4
f 53/10/5 5/9/5 6/11/5 54/12/5
f 54/12/6 6/11/6 7/13/6 55/14/6
f 55/14/7 7/13/7 8/15/7 56/16/7
f 56/16/8 8/15/8 9/17/8 57/18/8
f 57/18/9 9/17/9 10/19/9 58/20/9
f 58/20/10 10/19/10 11/21/10 59/22/10
f 59/22/11 11/21/11 12/23/11 60/24/11
f 60/24/12 12/23/12 1/2/12 49/1/12
f 61/25/13 62/26/13 37/27/13 38/28/13
f 62/26/14 63/29/14 39/30/14 37/27/14
f 63/29/15 64/31/15 40/32/15 39/30/15
f 64/31/16 65/33/16 41/34/16 40/32/16
f 65/33/17 66/35/17 42/36/17 41/34/17
f 66/35/18 67/37/18 43/38/18 42/36/18
f 67/37/19 68/39/19 44/40/19 43/38/19
f 68/39/20 69/41/20 45/42/20 44/40/20
f 69/41/21 70/43/21 46/44/21 45/42/21
f 70/43/22 71/45/22 47/46/22 46/44/22
f 71/45/23 72/47/23 48/48/23 47/46/23
f 72/47/24 61/25/24 38/28/24 48/48/24
f 10/49/25 9/50/25 45/51/25 46/52/25
f 7/53/26 6/54/26 42/55/26 43/56/26
f 4/57/27 3/58/27 39/59/27 40/60/27
f 11/61/28 10/49/28 46/52/28 47/62/28
f 8/63/29 7/53/29 43/56/29 44/64/29
f 5/65/30 4/57/30 40/60/30 41/66/30
f 12/67/31 11/61/31 47/62/31 48/68/31
f 2/69/32 1/70/32 38/71/32 37/72/32
f 9/50/33 8/63/33 44/64/33 45/51/33
f 6/54/34 5/65/34 41/66/34 42/55/34
f 1/70/35 12/67/35 48/68/35 38/71/35
f 3/58/36 2/69/36 37/72/36 39/59/36
f 96/73/37 60/24/37 49/1/37 85/74/37
f 95/75/38 59/22/38 60/24/38 96/73/38
f 94/76/39 58/20/39 59/22/39 95/75/39
f 93/77/40 57/18/40 58/20/40 94/76/40
f 92/78/41 56/16/41 57/18/41 93/77/41
f 91/79/42 55/14/42 56/16/42 92/78/42
f 90/80/43 54/12/43 55/14/43 91/79/43
f 89/81/44 53/10/44 54/12/44 90/80/44
f 88/82/45 52/8/45 53/10/45 89/81/45
f 87/83/46 51/6/46 52/8/46 88/82/46
f 86/84/47 50/4/47 51/6/47 87/83/47
f 85/74/48 49/1/48 50/4/48 86/84/48
f 84/85/49 73/86/49 61/25/49 72/47/49
f 83/87/50 84/85/50 72/47/50 71/45/50
f 82/88/51 83/87/51 71/45/51 70/43/51
f 81/89/52 82/88/52 70/43/52 69/41/52
f 80/90/53 81/89/53 69/41/53 68/39/53
f 79/91/54 80/90/54 68/39/54 67/37/54
f 78/92/55 79/91/55 67/37/55 66/35/55
f 77/93/56 78/92/56 66/35/56 65/33/56
f 76/94/57 77/93/57 65/33/57 64/31/57
f 75/95/58 76/94/58 64/31/58 63/29/58
f 74/96/59 75/95/59 63/29/59 62/26/59
f 73/86/60 74/96/60 62/26/60 61/25/60
f 26/97/61 25/98/61 74/96/61 73/86/61
f 25/98/62 27/99/62 75/95/62 74/96/62
f 27/99/63 28/100/63 76/94/63 75/95/63
f 28/100/64 29/101/64 77/93/64 76/94/64
f 29/101/65 30/102/65 78/92/65 77/93/65
f 30/102/66 31/103/66 79/91/66 78/92/66
f 31/103/67 32/104/67 80/90/67 79/91/67
f 32/104/68 33/105/68 81/89/68 80/90/68
f 33/105/69 34/106/69 82/88/69 81/89/69
f 34/106/70 35/107/70 83/87/70 82/88/70
f 35/107/71 36/108/71 84/85/71 83/87/71
f 36/108/72 26/97/72 73/86/72 84/85/72
f 14/109/73 85/74/73 86/84/73 13/110/73
f 13/110/74 86/84/74 87/83/74 15/111/74
f 15/111/75 87/83/75 88/82/75 16/112/75
f 16/112/76 88/82/76 89/81/76 17/113/76
f 17/113/77 89/81/77 90/80/77 18/114/77
f 18/114/78 90/80/78 91/79/78 19/115/78
f 19/115/79 91/79/79 92/78/79 20/116/79
f 20/116/80 92/78/80 93/77/80 21/117/80
f 21/117/81 93/77/81 94/76/81 22/118/81
f 22/118/82 94/76/82 95/75/82 23/119/82
f 23/119/83 95/75/83 96/73/83 24/120/83
f 24/120/84 96/73/84 85/74/84 14/109/84
f 13/121/85 15/122/85 97/123/85
f 15/122/85 16/124/85 97/123/85
f 16/124/85 17/125/85 97/123/85
f 17/125/85 18/126/85 97/123/85
f 18/126/85 19/127/85 97/123/85
f 19/127/85 20/128/85 97/123/85
f 20/128/85 21/129/85 97/123/85
f 21/129/85 22/130/85 97/123/85
f 22/130/85 23/131/85 97/123/85
f 23/131/85 24/132/85 97/123/85
f 24/132/85 14/133/85 97/123/85
f 14/133/85 13/121/85 97/123/85
f 25/134/86 26/135/86 98/136/86
f 26/135/86 36/137/86 98/136/86
f 36/137/86 35/138/86 98/136/86
f 35/138/86 34/139/86 98/136/86
f 34/139/86 33/140/86 98/136/86
f 33/140/86 32/104/86 98/136/86
f 32/104/86 31/103/86 98/136/86
f 31/103/86 30/102/86 98/136/86
f 30/102/86 29/141/86 98/136/86
f 29/141/86 28/142/86 98/136/86
f 28/142/86 27/143/86 98/136/86
f 27/143/86 25/134/86 98/136/86
