# Blender v2.83.3 OBJ File: 'Main28.blend'
# www.blender.org
g Bucket_Cylinder.002
v 0.000000 0.001125 -0.114750
v 0.000000 0.300000 -0.135000
v 0.081141 0.001125 -0.081141
v 0.095459 0.300000 -0.095459
v 0.114750 0.001125 0.000000
v 0.135000 0.300000 0.000000
v 0.081141 0.001125 0.081141
v 0.095459 0.300000 0.095459
v -0.000000 0.001125 0.114750
v -0.000000 0.300000 0.135000
v -0.135000 0.300000 -0.000000
v -0.081141 0.001125 -0.081141
v -0.095459 0.300000 -0.095459
v -0.081141 0.001125 0.081140
v -0.095459 0.300000 0.095459
v -0.114750 0.001125 -0.000000
v -0.092920 0.001125 0.086020
v -0.126529 0.001125 0.004879
v -0.148858 0.300000 0.005740
v -0.109318 0.300000 0.101200
v -0.004879 0.001125 0.126529
v -0.086020 0.001125 0.092920
v -0.101200 0.300000 0.109318
v -0.005740 0.300000 0.148858
v 0.086020 0.001125 0.092920
v 0.004879 0.001125 0.126529
v 0.005740 0.300000 0.148858
v 0.101200 0.300000 0.109318
v 0.126529 0.001125 0.004879
v 0.092920 0.001125 0.086020
v 0.109318 0.300000 0.101200
v 0.148858 0.300000 0.005740
v 0.092920 0.001125 -0.086020
v 0.126529 0.001125 -0.004879
v 0.148858 0.300000 -0.005740
v 0.109318 0.300000 -0.101200
v 0.004879 0.001125 -0.126529
v 0.086020 0.001125 -0.092920
v 0.101200 0.300000 -0.109318
v 0.005740 0.300000 -0.148858
v -0.005740 0.300000 -0.148858
v -0.086020 0.001125 -0.092920
v -0.004879 0.001125 -0.126529
v -0.101200 0.300000 -0.109318
v -0.126529 0.001125 -0.004879
v -0.092920 0.001125 -0.086020
v -0.109318 0.300000 -0.101200
v -0.148858 0.300000 -0.005740
v 0.089038 0.285000 -0.089038
v -0.000000 0.285000 -0.125919
v 0.125919 0.285000 0.000000
v 0.089038 0.285000 0.089038
v -0.000000 0.285000 0.125919
v -0.089038 0.285000 0.089038
v -0.125919 0.285000 -0.000000
v -0.089038 0.285000 -0.089038
v 0.000000 0.013875 -0.114750
v 0.081141 0.013875 -0.081141
v 0.114750 0.013875 0.000000
v 0.081141 0.013875 0.081141
v -0.000000 0.013875 0.114750
v -0.081141 0.013875 0.081140
v -0.114750 0.013875 -0.000000
v -0.081141 0.013875 -0.081141
v 0.000000 0.013875 0.000000
v 0.123822 0.220188 0.000000
v 0.127569 0.263745 0.000000
v -0.000000 0.220188 0.123822
v -0.000000 0.263745 0.127569
v 0.090205 0.263745 0.090205
v 0.087555 0.220188 0.087555
v 0.087555 0.220188 -0.087555
v 0.090205 0.263745 -0.090205
v 0.000000 0.263745 -0.127569
v 0.000000 0.220188 -0.123822
v -0.090205 0.263745 0.090205
v -0.087555 0.220188 0.087555
v -0.087555 0.220188 -0.087555
v -0.090205 0.263745 -0.090205
v -0.127569 0.263745 -0.000000
v -0.123822 0.220188 -0.000000
v 0.111703 0.263745 -0.111703
v 0.108617 0.220188 -0.108617
v 0.000000 0.220188 -0.153608
v 0.000000 0.263745 -0.157971
v -0.111703 0.263745 -0.111703
v -0.108617 0.220188 -0.108617
v -0.153608 0.220188 -0.000000
v -0.157971 0.263745 -0.000000
v -0.108617 0.220188 0.108617
v -0.111703 0.263745 0.111703
v -0.000000 0.263745 0.157971
v -0.000000 0.220188 0.153608
v 0.157971 0.263745 0.000000
v 0.153608 0.220188 0.000000
v 0.108617 0.220188 0.108617
v 0.111703 0.263745 0.111703
v 0.095459 0.285000 -0.095459
v -0.000000 0.285000 -0.135000
v 0.135000 0.285000 0.000000
v 0.095459 0.285000 0.095459
v -0.000000 0.285000 0.135000
v -0.095459 0.285000 0.095459
v -0.135000 0.285000 -0.000000
v -0.095459 0.285000 -0.095459
v -0.111137 0.021000 -0.000000
v -0.000000 0.021000 -0.000755
v -0.000000 0.021000 0.111137
v -0.000000 0.021000 -0.111137
v 0.111137 0.021000 0.000000
v 0.078586 0.021000 -0.078586
v 0.078586 0.021000 0.078586
v -0.078586 0.021000 0.078586
v -0.078586 0.021000 -0.078586
vt 0.191102 0.586986
vt 0.191625 0.510949
vt 0.191625 0.510949
vt 0.191102 0.586986
vt 0.212624 0.609810
vt 0.212624 0.609810
vt 0.212624 0.609810
vt 0.212624 0.609810
vt 0.215222 0.589382
vt 0.215222 0.589382
vt 0.215222 0.589382
vt 0.215222 0.589382
vt 0.215222 0.589382
vt 0.215222 0.589382
vt 0.191102 0.586986
vt 0.191625 0.510949
vt 0.191625 0.510949
vt 0.191102 0.586986
vt 0.188347 0.614815
vt 0.188347 0.614815
vt 0.188347 0.614815
vt 0.188347 0.614815
vt 0.187767 0.564181
vt 0.181336 0.564181
vt 0.181336 0.566620
vt 0.187767 0.566620
vt 0.191102 0.586986
vt 0.191625 0.510949
vt 0.191625 0.510949
vt 0.191102 0.586986
vt 0.191102 0.586986
vt 0.191625 0.510949
vt 0.191625 0.510949
vt 0.191102 0.586986
vt 0.188347 0.614815
vt 0.155499 0.620009
vt 0.155499 0.620009
vt 0.188347 0.614815
vt 0.191102 0.586986
vt 0.191102 0.586986
vt 0.191102 0.586986
vt 0.191102 0.586986
vt 0.191102 0.586986
vt 0.191102 0.586986
vt 0.203195 0.596469
vt 0.208643 0.598725
vt 0.208970 0.597934
vt 0.203523 0.595678
vt 0.215729 0.457874
vt 0.212181 0.434452
vt 0.212181 0.434452
vt 0.215729 0.457874
vt 0.191102 0.586986
vt 0.191102 0.586986
vt 0.195491 0.604173
vt 0.197748 0.598725
vt 0.196957 0.598398
vt 0.194700 0.603845
vt 0.193110 0.448505
vt 0.193110 0.448505
vt 0.193110 0.448505
vt 0.193110 0.448505
vt 0.191102 0.586986
vt 0.191102 0.586986
vt 0.191102 0.586986
vt 0.202868 0.595678
vt 0.197420 0.597934
vt 0.212181 0.434452
vt 0.193110 0.448505
vt 0.212181 0.434452
vt 0.191102 0.586986
vt 0.212181 0.434452
vt 0.212181 0.434452
vt 0.215222 0.589382
vt 0.215201 0.510949
vt 0.215201 0.510949
vt 0.215222 0.589382
vt 0.215222 0.589382
vt 0.215222 0.589382
vt 0.215222 0.589382
vt 0.215201 0.510949
vt 0.215201 0.510949
vt 0.215222 0.589382
vt 0.210899 0.604173
vt 0.211690 0.603845
vt 0.209434 0.598398
vt 0.215222 0.589382
vt 0.208643 0.609620
vt 0.209434 0.609948
vt 0.211690 0.604500
vt 0.215729 0.457874
vt 0.215729 0.457874
vt 0.215729 0.457874
vt 0.215222 0.589382
vt 0.215201 0.510949
vt 0.215201 0.510949
vt 0.215222 0.589382
vt 0.212624 0.609810
vt 0.212624 0.609810
vt 0.203195 0.611877
vt 0.203523 0.612668
vt 0.208970 0.610411
vt 0.215222 0.589382
vt 0.215201 0.510949
vt 0.215201 0.510949
vt 0.215222 0.589382
vt 0.215729 0.457874
vt 0.215729 0.457874
vt 0.215729 0.457874
vt 0.188347 0.614815
vt 0.188347 0.614815
vt 0.197748 0.609620
vt 0.197420 0.610411
vt 0.202868 0.612668
vt 0.193110 0.448505
vt 0.215729 0.457874
vt 0.193110 0.448505
vt 0.188347 0.614815
vt 0.188347 0.614815
vt 0.188347 0.614815
vt 0.188347 0.614815
vt 0.194700 0.604500
vt 0.196957 0.609948
vt 0.193110 0.448505
vt 0.193110 0.448505
vt 0.182813 0.566620
vt 0.188811 0.566620
vt 0.190511 0.717828
vt 0.185217 0.717828
vt 0.225246 0.564181
vt 0.218815 0.564181
vt 0.218815 0.566620
vt 0.225246 0.566620
vt 0.203291 0.564181
vt 0.203291 0.566620
vt 0.203291 0.566620
vt 0.188811 0.566620
vt 0.190511 0.717828
vt 0.203291 0.717828
vt 0.187767 0.564181
vt 0.187767 0.566620
vt 0.203291 0.564181
vt 0.218815 0.564181
vt 0.218815 0.566620
vt 0.203291 0.566620
vt 0.220172 0.666450
vt 0.232311 0.663947
vt 0.232311 0.663947
vt 0.208034 0.668953
vt 0.155499 0.620009
vt 0.155499 0.620009
vt 0.155499 0.620009
vt 0.155499 0.620009
vt 0.188347 0.614815
vt 0.188347 0.614815
vt 0.188347 0.614815
vt 0.188347 0.614815
vt 0.155499 0.620009
vt 0.155499 0.620009
vt 0.155499 0.620009
vt 0.155499 0.620009
vt 0.223769 0.566620
vt 0.217771 0.566620
vt 0.216071 0.717828
vt 0.221365 0.717828
vt 0.217771 0.566620
vt 0.216071 0.717828
vt 0.208034 0.668953
vt 0.232311 0.663947
vt 0.208034 0.668953
vt 0.208034 0.668953
vt 0.208034 0.668953
vt 0.183540 0.277339
vt 0.180267 0.280612
vt 0.184151 0.289989
vt 0.188779 0.289989
vt 0.177946 0.110301
vt 0.173947 0.110301
vt 0.169620 0.099853
vt 0.172447 0.097025
vt 0.159171 0.129076
vt 0.159171 0.125077
vt 0.169620 0.120750
vt 0.172447 0.123577
vt 0.170890 0.307878
vt 0.170890 0.303250
vt 0.161513 0.299366
vt 0.158241 0.302638
vt 0.145895 0.123577
vt 0.148723 0.120750
vt 0.153001 0.289989
vt 0.157629 0.289989
vt 0.161513 0.280612
vt 0.158241 0.277339
vt 0.180267 0.299366
vt 0.183540 0.302638
vt 0.145895 0.097025
vt 0.148723 0.099853
vt 0.144395 0.110301
vt 0.140396 0.110301
vt 0.128457 0.374607
vt 0.142604 0.374607
vt 0.141820 0.359808
vt 0.127347 0.359808
vt 0.142604 0.374607
vt 0.141820 0.359808
vt 0.176760 0.374607
vt 0.210915 0.374607
vt 0.211700 0.359808
vt 0.176760 0.359808
vt 0.210915 0.374607
vt 0.176760 0.374607
vt 0.176760 0.359808
vt 0.211700 0.359808
vt 0.225063 0.374607
vt 0.226173 0.359808
vt 0.159171 0.095525
vt 0.159171 0.091526
vt 0.170890 0.272100
vt 0.170890 0.276728
vt 0.188347 0.614815
vt 0.188347 0.614815
vt 0.203291 0.566620
vt 0.216826 0.695674
vt 0.194291 0.686339
vt 0.184956 0.663803
vt 0.216827 0.664020
vt 0.194291 0.641267
vt 0.216826 0.631933
vt 0.248697 0.663803
vt 0.239362 0.641267
vt 0.239362 0.686339
vt 0.203291 0.717828
vn -0.3817 -0.0700 0.9216
vn -0.3826 -0.0259 -0.9236
vn -0.3826 -0.0259 0.9236
vn 0.9236 -0.0259 -0.3826
vn 0.3817 -0.0700 0.9216
vn -0.9236 -0.0259 -0.3826
vn -0.9239 0.0000 -0.3827
vn -0.9216 -0.0700 0.3817
vn -0.9216 -0.0700 -0.3817
vn -0.3827 0.0000 -0.9239
vn 0.0000 -1.0000 0.0000
vn 0.0000 1.0000 -0.0000
vn 0.3826 -0.0259 0.9236
vn 0.9236 -0.0259 0.3826
vn -0.9236 -0.0259 0.3826
vn 0.9216 -0.0700 0.3817
vn 0.3826 -0.0259 -0.9236
vn 0.9216 -0.0700 -0.3817
vn 0.3817 -0.0700 -0.9216
vn -0.3817 -0.0700 -0.9216
vn -0.9226 0.0517 0.3822
vn 0.9239 0.0000 -0.3827
vn -0.3822 0.0517 -0.9226
vn -0.9239 0.0000 0.3827
vn 0.3827 0.0000 -0.9239
vn 0.3827 0.0000 0.9239
vn -0.3827 0.0000 0.9239
vn 0.9239 0.0000 0.3827
vn 0.9226 0.0517 -0.3822
vn 0.9226 0.0517 0.3822
vn -0.9199 -0.0922 -0.3811
vn -0.9199 -0.0922 0.3811
vn 0.3811 -0.0922 -0.9199
vn 0.3811 -0.0922 0.9199
vn -0.3811 -0.0922 0.9199
vn 0.9199 -0.0922 -0.3811
vn -0.3811 -0.0922 -0.9199
vn 0.9199 -0.0922 0.3811
vn 0.3822 0.0517 0.9226
vn 0.3822 0.0517 -0.9226
vn -0.9226 0.0517 -0.3822
vn -0.3822 0.0517 0.9226
s off
f 21/1/1 24/2/1 23/3/1 22/4/1
f 3/5/2 4/6/2 36/7/2 33/8/2
f 8/9/3 7/10/3 30/11/3 31/12/3
f 7/10/4 8/9/4 28/13/4 25/14/4
f 25/15/5 28/16/5 27/17/5 26/18/5
f 1/19/6 2/20/6 40/21/6 37/22/6
f 8/23/7 6/24/7 100/25/7 101/26/7
f 17/27/8 20/28/8 19/29/8 18/30/8
f 45/31/9 48/32/9 47/33/9 46/34/9
f 7/35/10 9/36/10 61/37/10 60/38/10
f 16/39/3 11/40/3 48/41/3 45/31/3
f 15/42/6 14/43/6 22/4/6 23/44/6
f 9/45/11 7/46/11 25/47/11 26/48/11
f 6/49/12 8/50/12 31/51/12 32/52/12
f 11/40/2 16/39/2 18/30/2 19/53/2
f 14/43/13 15/42/13 20/54/13 17/27/13
f 16/55/11 14/56/11 17/57/11 18/58/11
f 15/59/12 11/60/12 19/61/12 20/62/12
f 9/63/14 10/64/14 24/65/14 21/1/14
f 14/56/11 9/45/11 21/66/11 22/67/11
f 10/68/12 15/59/12 23/69/12 24/70/12
f 9/63/15 26/18/15 27/71/15 10/64/15
f 8/50/12 10/68/12 27/72/12 28/73/12
f 29/74/16 32/75/16 31/76/16 30/11/16
f 5/77/17 6/78/17 32/79/17 29/74/17
f 33/80/18 36/81/18 35/82/18 34/83/18
f 7/46/11 5/84/11 29/85/11 30/86/11
f 5/77/13 34/83/13 35/87/13 6/78/13
f 5/84/11 3/88/11 33/89/11 34/90/11
f 4/91/12 6/49/12 35/92/12 36/93/12
f 37/94/19 40/95/19 39/96/19 38/97/19
f 3/5/14 38/98/14 39/99/14 4/6/14
f 3/88/11 1/100/11 37/101/11 38/102/11
f 42/103/20 44/104/20 41/105/20 43/106/20
f 2/107/12 4/91/12 39/108/12 40/109/12
f 2/20/4 1/19/4 43/110/4 41/111/4
f 1/100/11 12/112/11 42/113/11 43/114/11
f 13/115/12 2/107/12 41/116/12 44/117/12
f 13/118/17 12/119/17 46/120/17 47/121/17
f 12/112/11 16/55/11 45/122/11 46/123/11
f 11/60/12 13/115/12 47/124/12 48/125/12
f 51/126/21 49/127/21 111/128/21 110/129/21
f 11/130/22 15/131/22 103/132/22 104/133/22
f 10/134/10 8/23/10 101/26/10 102/135/10
f 53/136/23 52/137/23 112/138/23 108/139/23
f 6/24/24 4/140/24 98/141/24 100/25/24
f 15/131/25 10/134/25 102/135/25 103/132/25
f 2/142/26 13/143/26 105/144/26 99/145/26
f 4/140/27 2/142/27 99/145/27 98/141/27
f 65/146/11 59/147/11 60/148/11 61/149/11
f 16/150/28 12/151/28 64/152/28 63/153/28
f 3/154/24 5/155/24 59/156/24 58/157/24
f 9/36/25 14/158/25 62/159/25 61/37/25
f 12/151/26 1/160/26 57/161/26 64/152/26
f 1/160/27 3/154/27 58/157/27 57/161/27
f 5/155/7 7/35/7 60/38/7 59/156/7
f 14/158/22 16/150/22 63/153/22 62/159/22
f 55/162/29 54/163/29 113/164/29 106/165/29
f 56/166/30 55/162/30 106/165/30 114/167/30
f 57/168/11 58/169/11 59/147/11 65/146/11
f 63/170/11 65/146/11 61/149/11 62/171/11
f 64/172/11 57/168/11 65/146/11 63/170/11
f 13/143/28 11/130/28 104/133/28 105/144/28
f 96/173/11 71/174/11 66/175/11 95/176/11
f 94/177/12 67/178/12 70/179/12 97/180/12
f 85/181/12 74/182/12 73/183/12 82/184/12
f 84/185/11 75/186/11 78/187/11 87/188/11
f 86/189/12 79/190/12 74/182/12 85/181/12
f 88/191/11 81/192/11 77/193/11 90/194/11
f 95/176/11 66/175/11 72/195/11 83/196/11
f 91/197/12 76/198/12 80/199/12 89/200/12
f 82/184/12 73/183/12 67/178/12 94/177/12
f 83/196/11 72/195/11 75/186/11 84/185/11
f 89/201/31 86/202/31 87/203/31 88/204/31
f 91/205/32 89/201/32 88/204/32 90/206/32
f 85/207/33 82/208/33 83/209/33 84/210/33
f 97/211/34 92/212/34 93/213/34 96/214/34
f 92/212/35 91/205/35 90/206/35 93/213/35
f 82/208/36 94/215/36 95/216/36 83/209/36
f 86/202/37 85/207/37 84/210/37 87/203/37
f 94/215/38 97/211/38 96/214/38 95/216/38
f 97/180/12 70/179/12 69/217/12 92/218/12
f 93/219/11 68/220/11 71/174/11 96/173/11
f 89/200/12 80/199/12 79/190/12 86/189/12
f 92/218/12 69/217/12 76/198/12 91/197/12
f 90/194/11 77/193/11 68/220/11 93/219/11
f 87/188/11 78/187/11 81/192/11 88/191/11
f 12/119/15 13/118/15 44/221/15 42/222/15
f 50/223/12 49/127/12 98/141/12 99/145/12
f 49/127/12 51/126/12 100/25/12 98/141/12
f 51/126/12 52/137/12 101/26/12 100/25/12
f 52/137/12 53/136/12 102/135/12 101/26/12
f 53/136/12 54/163/12 103/132/12 102/135/12
f 54/163/12 55/162/12 104/133/12 103/132/12
f 56/166/12 50/223/12 99/145/12 105/144/12
f 55/162/12 56/166/12 105/144/12 104/133/12
f 109/224/12 114/225/12 106/226/12 107/227/12
f 107/227/12 106/226/12 113/228/12 108/229/12
f 110/230/12 107/227/12 108/229/12 112/231/12
f 111/232/12 109/224/12 107/227/12 110/230/12
f 50/223/39 56/166/39 114/167/39 109/233/39
f 54/163/40 53/136/40 108/139/40 113/164/40
f 52/137/41 51/126/41 110/129/41 112/138/41
f 49/127/42 50/223/42 109/233/42 111/128/42
g Bucket.002_Cylinder.021
v -0.067933 0.145244 -0.153906
v -0.062195 0.141226 -0.155445
v 0.002543 0.233681 -0.155932
v -0.003195 0.237699 -0.154844
v -0.003195 0.237699 0.152693
v 0.002543 0.233681 0.153781
v -0.062195 0.141226 0.154801
v -0.067933 0.145244 0.153262
v 0.002553 0.233674 0.160116
v -0.003195 0.237699 0.159647
v -0.067933 0.145244 0.163097
v -0.062185 0.141219 0.163760
v -0.062185 0.141219 -0.164404
v -0.067933 0.145244 -0.163741
v -0.003195 0.237699 -0.161798
v 0.002553 0.233674 -0.162267
v -0.096658 0.093438 -0.140508
v -0.097662 0.092425 0.138959
v -0.129948 0.044465 -0.086996
v -0.142397 0.026686 -0.001143
v -0.130295 0.043970 0.084837
v -0.101147 0.095952 0.138064
v -0.100490 0.097312 -0.139511
v -0.135054 0.049386 0.084631
v -0.147171 0.032081 -0.001139
v -0.134705 0.049884 -0.086778
v -0.101337 0.086740 -0.146145
v -0.101866 0.086406 0.144006
v -0.136664 0.034851 -0.087039
v -0.148844 0.017456 -0.001145
v -0.136957 0.034433 0.084877
v -0.105521 0.090127 -0.145728
v -0.105672 0.089490 0.143632
v -0.142013 0.039447 -0.086933
v -0.154196 0.022048 -0.001143
v -0.142306 0.039028 0.084776
vt 0.151014 0.228759
vt 0.152031 0.228759
vt 0.152147 0.215952
vt 0.151428 0.215952
vt 0.151481 0.215952
vt 0.152270 0.215952
vt 0.152205 0.228759
vt 0.151089 0.228759
vt 0.176760 0.361922
vt 0.211588 0.361922
vt 0.211700 0.359808
vt 0.176760 0.359808
vt 0.211588 0.361922
vt 0.176760 0.361922
vt 0.176760 0.359808
vt 0.211700 0.359808
vt 0.188008 0.215952
vt 0.187289 0.215952
vt 0.187234 0.228759
vt 0.188251 0.228759
vt 0.188175 0.228759
vt 0.187060 0.228759
vt 0.187166 0.215952
vt 0.187955 0.215952
vt 0.171316 0.098156
vt 0.182524 0.278355
vt 0.170890 0.273536
vt 0.159171 0.093126
vt 0.186132 0.236328
vt 0.185426 0.235333
vt 0.159171 0.127477
vt 0.170890 0.306442
vt 0.182524 0.301623
vt 0.171316 0.122446
vt 0.185539 0.235443
vt 0.186179 0.236371
vt 0.176760 0.359808
vt 0.176760 0.361922
vt 0.153256 0.236436
vt 0.153828 0.235603
vt 0.176760 0.361922
vt 0.176760 0.359808
vt 0.170890 0.273536
vt 0.159171 0.093126
vt 0.153930 0.235502
vt 0.153298 0.236397
vt 0.159171 0.127477
vt 0.159264 0.128890
vt 0.170983 0.307853
vt 0.170890 0.306442
vt 0.160139 0.142250
vt 0.170890 0.306442
vt 0.160139 0.108018
vt 0.159264 0.094547
vt 0.170982 0.274955
vt 0.170890 0.273536
vt 0.159965 0.243551
vt 0.159970 0.242231
vt 0.169726 0.245902
vt 0.169726 0.244625
vt 0.179472 0.243493
vt 0.179467 0.242162
vt 0.176760 0.361915
vt 0.176760 0.359801
vt 0.176760 0.361849
vt 0.176760 0.359808
vt 0.176760 0.361915
vt 0.176760 0.359801
vt 0.159993 0.242037
vt 0.159976 0.243472
vt 0.169725 0.244434
vt 0.169726 0.245824
vt 0.179443 0.241968
vt 0.179460 0.243414
vn 0.8191 -0.5736 -0.0017
vn -0.8192 0.5736 0.0000
vn -0.0479 0.0717 0.9963
vn -0.0555 0.0609 -0.9966
vn 0.8191 -0.5736 0.0017
vn 0.1545 -0.1006 0.9829
vn -0.8257 0.5640 0.0063
vn 0.1470 -0.1114 -0.9828
vn 0.8128 -0.5825 0.0077
vn -0.2342 -0.1752 0.9563
vn 0.8109 -0.5851 -0.0090
vn -0.2245 -0.1609 -0.9611
vn 0.3110 0.0727 0.9476
vn -0.8275 0.5614 -0.0076
vn 0.5545 0.4229 -0.7167
vn 0.7318 0.6408 -0.2322
vn 0.7310 0.6393 0.2388
vn 0.5503 0.4139 0.7252
vn 0.8218 -0.5696 0.0137
vn 0.8198 -0.5727 -0.0003
vn 0.8198 -0.5727 0.0003
vn 0.8214 -0.5702 -0.0102
vn -0.4650 -0.5079 -0.7251
vn -0.6339 -0.7356 -0.2390
vn -0.6346 -0.7368 0.2333
vn -0.4647 -0.5091 0.7245
vn -0.8167 0.5768 0.0146
vn -0.8172 0.5762 -0.0112
vn 0.3144 0.0792 -0.9460
s off
f 126/234/43 121/235/43 120/236/43 123/237/43
f 124/238/44 119/239/44 122/240/44 125/241/44
f 126/242/45 123/243/45 124/244/45 125/245/45
f 130/246/46 127/247/46 128/248/46 129/249/46
f 130/250/47 117/251/47 116/252/47 127/253/47
f 128/254/44 115/255/44 118/256/44 129/257/44
f 117/258/48 118/259/48 115/260/48 116/261/48
f 128/254/49 146/262/49 137/263/49 115/255/49
f 121/264/50 122/265/50 119/266/50 120/267/50
f 116/252/51 131/268/51 141/269/51 127/253/51
f 125/245/52 147/270/52 142/271/52 126/242/52
f 126/234/53 142/272/53 132/273/53 121/235/53
f 127/247/54 141/274/54 146/275/54 128/248/54
f 115/260/55 137/276/55 131/277/55 116/261/55
f 122/240/56 136/278/56 147/279/56 125/241/56
f 132/280/57 135/281/57 138/282/57 136/283/57
f 135/281/58 134/284/58 139/285/58 138/282/58
f 134/286/59 133/287/59 140/288/59 139/289/59
f 133/287/60 131/277/60 137/276/60 140/288/60
f 142/272/61 145/290/61 135/291/61 132/273/61
f 145/290/62 144/292/62 134/293/62 135/291/62
f 144/292/63 143/294/63 133/295/63 134/293/63
f 143/294/64 141/269/64 131/268/64 133/295/64
f 141/274/65 143/296/65 148/297/65 146/275/65
f 143/296/66 144/298/66 149/299/66 148/297/66
f 144/298/67 145/300/67 150/301/67 149/299/67
f 145/300/68 142/271/68 147/270/68 150/301/68
f 136/278/69 138/302/69 150/303/69 147/279/69
f 138/302/44 139/304/44 149/305/44 150/303/44
f 139/304/44 140/306/44 148/307/44 149/305/44
f 140/306/70 137/263/70 146/262/70 148/307/70
f 121/264/71 132/280/71 136/283/71 122/265/71
