# Blender v2.83.3 OBJ File: 'Main33.blend'
# www.blender.org
o Bush_Sphere
v -0.000000 0.467582 -0.359431
v 0.000000 -0.000000 -0.600000
v 0.254156 0.467582 -0.254156
v 0.424264 -0.000000 -0.424264
v 0.359431 0.467582 0.000000
v 0.600000 -0.000000 0.000000
v 0.254156 0.467582 0.254156
v 0.424264 -0.000000 0.424264
v 0.000000 0.467582 0.359431
v 0.000000 -0.000000 0.600000
v -0.000000 0.600000 0.000000
v -0.254156 0.467582 0.254156
v -0.424264 -0.000000 0.424264
v -0.359431 0.467582 0.000000
v -0.600000 -0.000000 0.000000
v -0.254156 0.467582 -0.254156
v -0.424264 -0.000000 -0.424264
v 0.000000 0.231635 -0.548867
v 0.388108 0.231635 -0.388108
v 0.548867 0.231635 0.000000
v 0.388108 0.231635 0.388108
v 0.000000 0.231635 0.548867
v -0.388108 0.231635 0.388108
v -0.548867 0.231635 0.000000
v -0.388108 0.231635 -0.388108
v -0.000000 0.467582 -0.359431
v 0.254156 0.467582 -0.254156
v 0.359431 0.467582 0.000000
v 0.254156 0.467582 0.254156
v 0.000000 0.467582 0.359431
v -0.000000 0.600000 0.000000
v -0.254156 0.467582 0.254156
v -0.359431 0.467582 0.000000
v -0.254156 0.467582 -0.254156
v 0.000000 0.231635 -0.548867
v 0.388108 0.231635 -0.388108
v 0.548867 0.231635 0.000000
v 0.388108 0.231635 0.388108
v 0.000000 0.231635 0.548867
v -0.388108 0.231635 0.388108
v -0.548867 0.231635 0.000000
v -0.388108 0.231635 -0.388108
v 0.008958 0.564490 -0.379203
v 0.277095 0.564490 -0.268137
v 0.388161 0.564490 0.000000
v 0.277095 0.564490 0.268137
v 0.008958 0.564490 0.379203
v 0.008958 0.704192 0.000000
v -0.259179 0.564490 0.268137
v -0.370245 0.564490 0.000000
v -0.259179 0.564490 -0.268137
v 0.008958 0.315563 -0.579059
v 0.418415 0.315563 -0.409457
v 0.588017 0.315563 0.000000
v 0.418415 0.315563 0.409457
v 0.008958 0.315563 0.579059
v -0.400499 0.315563 0.409457
v -0.570101 0.315563 0.000000
v -0.400499 0.315563 -0.409457
v 0.008958 0.730226 -0.317077
v 0.233165 0.730226 -0.224208
v 0.326035 0.730226 0.000000
v 0.233165 0.730226 0.224208
v 0.008958 0.730226 0.317077
v 0.008958 0.847041 0.000000
v -0.215250 0.730226 0.224208
v -0.308120 0.730226 0.000000
v -0.215250 0.730226 -0.224207
v 0.008958 0.522082 -0.484191
v 0.351333 0.522082 -0.342375
v 0.493149 0.522082 0.000000
v 0.351333 0.522082 0.342375
v 0.008958 0.522082 0.484191
v -0.333417 0.522082 0.342375
v -0.475233 0.522082 0.000000
v -0.333417 0.522082 -0.342375
vt 0.164031 0.190034
vt 0.164031 0.147317
vt 0.108093 0.190034
vt 0.164031 0.235741
vt 0.083849 0.235741
vt 0.084923 0.190034
vt 0.050637 0.235741
vt 0.108093 0.190034
vt 0.083849 0.235741
vt 0.164031 0.190034
vt 0.164031 0.235741
vt 0.219969 0.190034
vt 0.244213 0.235741
vt 0.243139 0.190034
vt 0.277425 0.235741
vt 0.219969 0.190034
vt 0.244213 0.235741
vt 0.256698 0.278368
vt 0.164031 0.278368
vt 0.295082 0.278368
vt 0.256698 0.278368
vt 0.164031 0.278368
vt 0.071364 0.278368
vt 0.032980 0.278368
vt 0.071364 0.278368
vt 0.164031 0.190034
vt 0.164031 0.147317
vt 0.108093 0.190034
vt 0.164031 0.235741
vt 0.083849 0.235741
vt 0.084923 0.190034
vt 0.050637 0.235741
vt 0.108093 0.190034
vt 0.083849 0.235741
vt 0.164031 0.190034
vt 0.164031 0.235741
vt 0.219969 0.190034
vt 0.244213 0.235741
vt 0.243139 0.190034
vt 0.277425 0.235741
vt 0.219969 0.190034
vt 0.244213 0.235741
vt 0.161570 0.120821
vt 0.161570 0.069223
vt 0.094002 0.120821
vt 0.161570 0.176032
vt 0.064718 0.176032
vt 0.066015 0.120821
vt 0.024600 0.176032
vt 0.094002 0.120821
vt 0.064718 0.176032
vt 0.161570 0.120821
vt 0.161570 0.176032
vt 0.229138 0.120821
vt 0.258423 0.176032
vt 0.257126 0.120821
vt 0.298541 0.176032
vt 0.229138 0.120821
vt 0.258423 0.176032
vt 0.166492 0.067125
vt 0.166492 0.028121
vt 0.115416 0.067125
vt 0.166492 0.108860
vt 0.093279 0.108860
vt 0.094259 0.067125
vt 0.062953 0.108860
vt 0.115416 0.067125
vt 0.093279 0.108860
vt 0.166492 0.067125
vt 0.166492 0.108860
vt 0.217568 0.067125
vt 0.239705 0.108860
vt 0.238724 0.067125
vt 0.270031 0.108860
vt 0.217568 0.067125
vt 0.239705 0.108860
vn 0.1417 0.9289 -0.3422
vn 0.3074 0.5958 -0.7420
vn 0.3422 0.9289 -0.1417
vn 0.7420 0.5958 -0.3074
vn 0.3422 0.9289 0.1417
vn 0.7420 0.5958 0.3074
vn 0.1417 0.9289 0.3422
vn 0.3074 0.5958 0.7420
vn -0.1417 0.9289 0.3422
vn -0.3074 0.5958 0.7420
vn -0.7420 0.5958 0.3074
vn -0.3422 0.9289 0.1417
vn -0.7420 0.5958 -0.3074
vn -0.3422 0.9289 -0.1417
vn -0.3074 0.5958 -0.7420
vn -0.1417 0.9289 -0.3422
vn -0.3750 0.1998 -0.9052
vn -0.9052 0.1998 -0.3750
vn -0.9052 0.1998 0.3750
vn -0.3750 0.1998 0.9052
vn 0.3750 0.1998 0.9052
vn 0.9052 0.1998 0.3750
vn 0.9052 0.1998 -0.3750
vn 0.3750 0.1998 -0.9052
s off
f 1/1/1 11/2/1 3/3/1
f 18/4/2 1/1/2 3/3/2 19/5/2
f 3/3/3 11/2/3 5/6/3
f 19/5/4 3/3/4 5/6/4 20/7/4
f 5/6/5 11/2/5 7/8/5
f 20/7/6 5/6/6 7/8/6 21/9/6
f 7/8/7 11/2/7 9/10/7
f 21/9/8 7/8/8 9/10/8 22/11/8
f 9/10/9 11/2/9 12/12/9
f 22/11/10 9/10/10 12/12/10 23/13/10
f 23/13/11 12/12/11 14/14/11 24/15/11
f 12/12/12 11/2/12 14/14/12
f 24/15/13 14/14/13 16/16/13 25/17/13
f 14/14/14 11/2/14 16/16/14
f 25/17/15 16/16/15 1/1/15 18/4/15
f 16/16/16 11/2/16 1/1/16
f 17/18/17 25/17/17 18/4/17 2/19/17
f 15/20/18 24/15/18 25/17/18 17/18/18
f 13/21/19 23/13/19 24/15/19 15/20/19
f 10/22/20 22/11/20 23/13/20 13/21/20
f 8/23/21 21/9/21 22/11/21 10/22/21
f 6/24/22 20/7/22 21/9/22 8/23/22
f 4/25/23 19/5/23 20/7/23 6/24/23
f 2/19/24 18/4/24 19/5/24 4/25/24
f 26/26/1 31/27/1 27/28/1
f 35/29/2 26/26/2 27/28/2 36/30/2
f 27/28/3 31/27/3 28/31/3
f 36/30/4 27/28/4 28/31/4 37/32/4
f 28/31/5 31/27/5 29/33/5
f 37/32/6 28/31/6 29/33/6 38/34/6
f 29/33/7 31/27/7 30/35/7
f 38/34/8 29/33/8 30/35/8 39/36/8
f 30/35/9 31/27/9 32/37/9
f 39/36/10 30/35/10 32/37/10 40/38/10
f 40/38/11 32/37/11 33/39/11 41/40/11
f 32/37/12 31/27/12 33/39/12
f 41/40/13 33/39/13 34/41/13 42/42/13
f 33/39/14 31/27/14 34/41/14
f 42/42/15 34/41/15 26/26/15 35/29/15
f 34/41/16 31/27/16 26/26/16
f 43/43/1 48/44/1 44/45/1
f 52/46/2 43/43/2 44/45/2 53/47/2
f 44/45/3 48/44/3 45/48/3
f 53/47/4 44/45/4 45/48/4 54/49/4
f 45/48/5 48/44/5 46/50/5
f 54/49/6 45/48/6 46/50/6 55/51/6
f 46/50/7 48/44/7 47/52/7
f 55/51/8 46/50/8 47/52/8 56/53/8
f 47/52/9 48/44/9 49/54/9
f 56/53/10 47/52/10 49/54/10 57/55/10
f 57/55/11 49/54/11 50/56/11 58/57/11
f 49/54/12 48/44/12 50/56/12
f 58/57/13 50/56/13 51/58/13 59/59/13
f 50/56/14 48/44/14 51/58/14
f 59/59/15 51/58/15 43/43/15 52/46/15
f 51/58/16 48/44/16 43/43/16
f 60/60/1 65/61/1 61/62/1
f 69/63/2 60/60/2 61/62/2 70/64/2
f 61/62/3 65/61/3 62/65/3
f 70/64/4 61/62/4 62/65/4 71/66/4
f 62/65/5 65/61/5 63/67/5
f 71/66/6 62/65/6 63/67/6 72/68/6
f 63/67/7 65/61/7 64/69/7
f 72/68/8 63/67/8 64/69/8 73/70/8
f 64/69/9 65/61/9 66/71/9
f 73/70/10 64/69/10 66/71/10 74/72/10
f 74/72/11 66/71/11 67/73/11 75/74/11
f 66/71/12 65/61/12 67/73/12
f 75/74/13 67/73/13 68/75/13 76/76/13
f 67/73/14 65/61/14 68/75/14
f 76/76/15 68/75/15 60/60/15 69/63/15
f 68/75/16 65/61/16 60/60/16
