# Blender v2.83.3 OBJ File: 'Main33.blend'
# www.blender.org
o Candle_02_Cylinder.038
v 0.000000 0.066618 -0.029949
v 0.014976 0.066618 -0.025936
v 0.025939 0.066618 -0.014973
v 0.029952 0.066618 0.000003
v 0.025939 0.066618 0.014979
v 0.014976 0.066618 0.025942
v 0.000000 0.066618 0.029955
v -0.014976 0.066618 0.025942
v -0.025939 0.066618 0.014979
v -0.029952 0.066618 0.000003
v -0.025939 0.066618 -0.014973
v -0.014976 0.066618 -0.025936
v 0.016025 0.000166 -0.027752
v 0.000000 0.000166 -0.032046
v 0.027755 0.000166 -0.016022
v 0.032049 0.000166 0.000003
v 0.027755 0.000166 0.016027
v 0.016025 0.000166 0.027758
v 0.000000 0.000166 0.032052
v -0.016025 0.000166 0.027758
v -0.027755 0.000166 0.016027
v -0.032049 0.000166 0.000003
v -0.027755 0.000166 -0.016022
v -0.016025 0.000166 -0.027752
v 0.000000 0.056618 0.000003
v 0.007128 0.073066 -0.001347
v 0.007128 0.073066 0.001353
v 0.003049 0.075354 0.001353
v 0.003049 0.075354 -0.001347
v 0.002502 0.056242 -0.001442
v 0.002502 0.056242 0.001448
v -0.002502 0.056242 0.001448
v -0.002502 0.056242 -0.001442
v 0.004647 0.073424 0.000003
v 0.000000 0.000166 0.000003
vt 0.454562 0.340485
vt 0.454562 0.581038
vt 0.471997 0.581038
vt 0.468531 0.340485
vt 0.484759 0.581037
vt 0.478757 0.340485
vt 0.489431 0.581037
vt 0.482500 0.340485
vt 0.484759 0.581037
vt 0.478757 0.340485
vt 0.471997 0.581038
vt 0.468531 0.340485
vt 0.454562 0.581038
vt 0.454562 0.340485
vt 0.437129 0.581038
vt 0.440595 0.340485
vt 0.424367 0.581038
vt 0.430369 0.340485
vt 0.419695 0.581038
vt 0.426626 0.340485
vt 0.424367 0.581038
vt 0.430369 0.340485
vt 0.437129 0.581038
vt 0.440595 0.340485
vt 0.423114 0.639301
vt 0.405760 0.639302
vt 0.446828 0.535433
vt 0.399408 0.639302
vt 0.405760 0.639302
vt 0.423114 0.639302
vt 0.446828 0.639302
vt 0.470534 0.639302
vt 0.487895 0.639302
vt 0.494247 0.639302
vt 0.487895 0.639302
vt 0.470534 0.639301
vt 0.446828 0.639301
vt 0.084057 0.619755
vt 0.084057 0.619755
vt 0.083061 0.579852
vt 0.083061 0.579852
vt 0.084577 0.629420
vt 0.077765 0.612190
vt 0.070953 0.629420
vt 0.074039 0.619755
vt 0.074039 0.619755
vt 0.075035 0.579852
vt 0.075035 0.579852
vt 0.084577 0.629420
vt 0.070953 0.629420
vt 0.475710 0.147687
vt 0.487328 0.147687
vt 0.459843 0.147687
vt 0.491580 0.147687
vt 0.487328 0.147687
vt 0.475710 0.147687
vt 0.459843 0.147687
vt 0.443976 0.147687
vt 0.432359 0.147687
vt 0.428107 0.147687
vt 0.432359 0.147687
vt 0.443976 0.147687
vt 0.459843 0.147687
vn 0.2587 0.0305 -0.9655
vn 0.7068 0.0305 -0.7068
vn 0.9655 0.0305 -0.2587
vn 0.9655 0.0305 0.2587
vn 0.7068 0.0305 0.7068
vn 0.2587 0.0305 0.9655
vn -0.2587 0.0305 0.9655
vn -0.7068 0.0305 0.7068
vn -0.9655 0.0305 0.2587
vn -0.9655 0.0305 -0.2587
vn -0.7068 0.0305 -0.7068
vn -0.2587 0.0305 -0.9655
vn 0.2310 0.9451 0.2310
vn 0.3155 0.9451 0.0846
vn 0.3155 0.9451 -0.0846
vn 0.2310 0.9451 -0.2310
vn 0.0846 0.9451 -0.3156
vn -0.0846 0.9451 -0.3155
vn -0.2310 0.9451 -0.2310
vn -0.3155 0.9451 -0.0846
vn -0.3155 0.9451 0.0846
vn -0.2310 0.9451 0.2310
vn -0.0846 0.9451 0.3155
vn 0.0846 0.9451 0.3155
vn 0.9642 -0.2651 0.0000
vn 0.4069 0.7253 -0.5553
vn -0.9603 0.2789 0.0000
vn 0.4069 0.7253 0.5553
vn 0.0012 0.0049 1.0000
vn 0.7703 0.6377 0.0000
vn 0.1428 0.9897 0.0000
vn 0.0012 0.0049 -1.0000
vn 0.0000 -1.0000 -0.0000
s off
f 14/1/1 1/2/1 2/3/1 13/4/1
f 13/4/2 2/3/2 3/5/2 15/6/2
f 15/6/3 3/5/3 4/7/3 16/8/3
f 16/8/4 4/7/4 5/9/4 17/10/4
f 17/10/5 5/9/5 6/11/5 18/12/5
f 18/12/6 6/11/6 7/13/6 19/14/6
f 19/14/7 7/13/7 8/15/7 20/16/7
f 20/16/8 8/15/8 9/17/8 21/18/8
f 21/18/9 9/17/9 10/19/9 22/20/9
f 22/20/10 10/19/10 11/21/10 23/22/10
f 23/22/11 11/21/11 12/23/11 24/24/11
f 24/24/12 12/23/12 1/2/12 14/1/12
f 12/25/13 11/26/13 25/27/13
f 11/26/14 10/28/14 25/27/14
f 10/28/15 9/29/15 25/27/15
f 9/29/16 8/30/16 25/27/16
f 8/30/17 7/31/17 25/27/17
f 7/31/18 6/32/18 25/27/18
f 6/32/19 5/33/19 25/27/19
f 5/33/20 4/34/20 25/27/20
f 4/34/21 3/35/21 25/27/21
f 3/35/22 2/36/22 25/27/22
f 2/36/23 1/37/23 25/27/23
f 1/37/24 12/25/24 25/27/24
f 26/38/25 27/39/25 31/40/25 30/41/25
f 27/42/26 34/43/26 28/44/26
f 28/45/27 29/46/27 33/47/27 32/48/27
f 34/43/28 26/49/28 29/50/28
f 27/39/29 28/45/29 32/48/29 31/40/29
f 28/44/30 34/43/30 29/50/30
f 26/49/31 34/43/31 27/42/31
f 26/38/32 30/41/32 33/47/32 29/46/32
f 13/51/33 15/52/33 35/53/33
f 15/52/33 16/54/33 35/53/33
f 16/54/33 17/55/33 35/53/33
f 17/55/33 18/56/33 35/53/33
f 18/56/33 19/57/33 35/53/33
f 19/57/33 20/58/33 35/53/33
f 20/58/33 21/59/33 35/53/33
f 21/59/33 22/60/33 35/53/33
f 22/60/33 23/61/33 35/53/33
f 23/61/33 24/62/33 35/53/33
f 24/62/33 14/63/33 35/53/33
f 14/63/33 13/51/33 35/53/33
