# Blender v2.83.3 OBJ File: 'Main16.blend'
# www.blender.org
o Chair_Cube.102
v -0.261000 0.000000 0.197999
v -0.201000 0.000000 0.197999
v -0.261000 0.000000 0.258000
v -0.201000 0.000000 0.258000
v -0.201000 0.470000 0.197999
v -0.201000 0.470000 0.258000
v -0.261000 0.470000 0.258000
v -0.261000 0.470000 0.197999
v -0.260000 0.000000 -0.305000
v -0.260000 1.000000 -0.355000
v -0.210000 0.000000 -0.305000
v -0.210000 1.000000 -0.355000
v -0.260000 0.000000 -0.255000
v -0.260000 1.000000 -0.305000
v -0.210000 0.000000 -0.255000
v -0.210000 1.000000 -0.305000
v -0.260000 0.450000 -0.255000
v -0.210000 0.450000 -0.255000
v -0.210000 0.450000 -0.205000
v -0.260000 0.450000 -0.205000
v 0.258000 0.000000 0.197999
v 0.198000 0.000000 0.197999
v 0.258000 0.000000 0.258000
v 0.198000 0.000000 0.258000
v 0.198000 0.470000 0.197999
v 0.198000 0.470000 0.258000
v 0.258000 0.470000 0.258000
v 0.258000 0.470000 0.197999
v 0.259000 0.000000 -0.305000
v 0.259000 1.000000 -0.355000
v 0.209000 0.000000 -0.305000
v 0.209000 1.000000 -0.355000
v 0.259000 0.000000 -0.255000
v 0.259000 1.000000 -0.305000
v 0.209000 0.000000 -0.255000
v 0.209000 1.000000 -0.305000
v 0.259000 0.450000 -0.255000
v 0.209000 0.450000 -0.255000
v 0.209000 0.450000 -0.205000
v 0.259000 0.450000 -0.205000
v 0.255001 0.430000 0.250000
v -0.254999 0.430000 0.250000
v 0.255001 0.450000 0.250000
v -0.254999 0.450000 0.250000
v 0.255001 0.430000 -0.250000
v -0.254999 0.430000 -0.250000
v 0.255001 0.450000 -0.250000
v -0.254999 0.450000 -0.250000
v -0.230000 0.940380 -0.267623
v -0.229999 0.673004 -0.221133
v 0.230000 0.940380 -0.267623
v 0.230000 0.673004 -0.221133
v -0.230000 0.937251 -0.287377
v -0.229999 0.669875 -0.240886
v 0.230000 0.937251 -0.287377
v 0.230000 0.669875 -0.240886
v -0.000000 0.938996 -0.337348
v 0.127940 0.671119 -0.276504
v 0.000001 0.671620 -0.290855
v 0.127940 0.938495 -0.322996
v -0.127940 0.671119 -0.276504
v 0.127940 0.941624 -0.303242
v -0.000000 0.942125 -0.317592
v -0.127940 0.938495 -0.322996
v -0.127940 0.941624 -0.303241
v 0.127940 0.674248 -0.256750
v 0.000001 0.674749 -0.271102
v -0.127940 0.674248 -0.256750
v -0.210000 0.360000 -0.235001
v -0.210000 0.360000 -0.215000
v -0.210000 0.430000 -0.235001
v -0.210000 0.430000 -0.215000
v 0.209000 0.360000 -0.235001
v 0.209000 0.360000 -0.215000
v 0.209000 0.430000 -0.235001
v 0.209000 0.430000 -0.215000
v -0.200000 0.360000 0.210000
v -0.200000 0.360000 0.230000
v -0.200000 0.430000 0.210000
v -0.200000 0.430000 0.230000
v 0.199000 0.360000 0.210000
v 0.199000 0.360000 0.230000
v 0.199000 0.430000 0.210000
v 0.199000 0.430000 0.230000
v 0.211383 0.360000 0.204999
v 0.231383 0.360000 0.204999
v 0.211383 0.430000 0.204999
v 0.231383 0.430000 0.204999
v 0.220001 0.360000 -0.215000
v 0.240000 0.360000 -0.215000
v 0.220001 0.430000 -0.215000
v 0.240000 0.430000 -0.215000
v -0.231383 0.360000 0.204999
v -0.211382 0.360000 0.204999
v -0.231383 0.430000 0.204999
v -0.211382 0.430000 0.204999
v -0.240000 0.360000 -0.215000
v -0.220000 0.360000 -0.215000
v -0.240000 0.430000 -0.215000
v -0.220000 0.430000 -0.215000
vt 0.215809 0.948537
vt 0.215809 0.729106
vt 0.215809 0.729106
vt 0.215809 0.948537
vt 0.200246 0.957896
vt 0.200246 0.957896
vt 0.219752 0.957896
vt 0.219752 0.957896
vt 0.210933 0.948537
vt 0.210933 0.738859
vt 0.191427 0.738859
vt 0.191428 0.948537
vt 0.191427 0.738859
vt 0.191428 0.948537
vt 0.210933 0.738859
vt 0.210933 0.948537
vt 0.215809 0.460913
vt 0.196304 0.460913
vt 0.196304 0.729106
vt 0.196304 0.460913
vt 0.196304 0.729106
vt 0.215809 0.460913
vt 0.205123 0.957896
vt 0.205123 0.957896
vt 0.224628 0.957896
vt 0.224628 0.957896
vt 0.175464 0.290123
vt 0.175464 0.290123
vt 0.205298 0.290123
vt 0.205298 0.290123
vt 0.196304 0.948537
vt 0.196304 0.948537
vt 0.136634 0.948537
vt 0.136634 0.948537
vt 0.136634 0.729106
vt 0.136634 0.729106
vt 0.169834 0.957896
vt 0.150329 0.957896
vt 0.150329 0.957896
vt 0.169834 0.957896
vt 0.141510 0.948537
vt 0.161015 0.948537
vt 0.161015 0.738859
vt 0.141510 0.738859
vt 0.161015 0.948537
vt 0.161015 0.738859
vt 0.141510 0.948537
vt 0.141510 0.738859
vt 0.156139 0.729106
vt 0.156139 0.460913
vt 0.136634 0.460913
vt 0.156139 0.729106
vt 0.156139 0.460913
vt 0.136634 0.460913
vt 0.164957 0.957896
vt 0.145452 0.957896
vt 0.145452 0.957896
vt 0.164957 0.957896
vt 0.114029 0.290123
vt 0.084195 0.290123
vt 0.084195 0.290123
vt 0.114029 0.290123
vt 0.156139 0.948537
vt 0.156139 0.948537
vt 0.191427 0.474579
vt 0.210933 0.474579
vt 0.210933 0.474579
vt 0.191427 0.474579
vt 0.141510 0.474579
vt 0.161015 0.474579
vt 0.161015 0.474579
vt 0.141510 0.474579
vt 0.160299 0.322736
vt 0.160299 0.322736
vt 0.160299 0.326480
vt 0.160299 0.326480
vt 0.200986 0.929173
vt 0.200986 0.880207
vt 0.151040 0.880207
vt 0.151040 0.929173
vt 0.175675 0.279501
vt 0.175675 0.209350
vt 0.247229 0.209350
vt 0.247229 0.279501
vt 0.255775 0.326480
vt 0.255775 0.326480
vt 0.255775 0.322736
vt 0.255775 0.322736
vt 0.112854 0.658031
vt 0.071947 0.672022
vt 0.071947 0.664024
vt 0.112854 0.650033
vt 0.208247 0.101645
vt 0.157070 0.096008
vt 0.157070 0.088009
vt 0.208247 0.093646
vt 0.249154 0.115636
vt 0.249154 0.107638
vt 0.105892 0.101645
vt 0.064985 0.115637
vt 0.064985 0.107638
vt 0.105892 0.093646
vt 0.164031 0.652394
vt 0.164031 0.644395
vt 0.256115 0.672022
vt 0.215209 0.658031
vt 0.215209 0.650033
vt 0.256115 0.664024
vt 0.248848 0.419598
vt 0.248848 0.311064
vt 0.256846 0.310944
vt 0.256846 0.419478
vt 0.059634 0.311064
vt 0.059634 0.419598
vt 0.051636 0.419478
vt 0.051636 0.310944
vt 0.213055 0.706892
vt 0.213055 0.720603
vt 0.130786 0.720603
vt 0.130786 0.706892
vt 0.236005 0.683985
vt 0.236005 0.683985
vt 0.153736 0.683985
vt 0.153736 0.683985
vt 0.235879 0.457361
vt 0.235879 0.443649
vt 0.153610 0.443649
vt 0.153610 0.457361
vt 0.235879 0.443649
vt 0.235879 0.457361
vt 0.153610 0.457361
vt 0.153610 0.443649
vt 0.236005 0.683985
vt 0.236005 0.683985
vt 0.153736 0.683985
vt 0.153736 0.683985
vt 0.213055 0.720603
vt 0.213055 0.706892
vt 0.130786 0.706892
vt 0.130786 0.720603
vt 0.241755 0.443649
vt 0.241755 0.457361
vt 0.241755 0.457361
vt 0.241755 0.443649
vt 0.237964 0.683985
vt 0.241881 0.683985
vt 0.241881 0.683985
vt 0.237964 0.683985
vt 0.215014 0.720603
vt 0.215014 0.706892
vt 0.215014 0.706892
vt 0.215014 0.720603
vt 0.128828 0.706892
vt 0.128828 0.720603
vt 0.128828 0.720603
vt 0.128828 0.706892
vt 0.147860 0.683985
vt 0.151778 0.683985
vt 0.151778 0.683985
vt 0.147860 0.683985
vt 0.147734 0.457361
vt 0.147734 0.443649
vt 0.147734 0.443649
vt 0.147734 0.457361
vt 0.097713 0.474463
vt 0.115675 0.474463
vt 0.115675 0.475364
vt 0.097713 0.475364
vt 0.097200 0.475589
vt 0.096812 0.494496
vt 0.095912 0.494496
vt 0.096300 0.475589
vt 0.097263 0.494496
vt 0.116125 0.494496
vt 0.116125 0.495396
vt 0.097263 0.495396
vt 0.117132 0.475589
vt 0.117520 0.494496
vt 0.116620 0.494496
vt 0.116232 0.475589
vt 0.205715 0.260808
vt 0.205715 0.369342
vt 0.154241 0.368162
vt 0.154241 0.259628
vt 0.102767 0.369342
vt 0.102767 0.260808
vt 0.207276 0.369136
vt 0.207276 0.260602
vt 0.250409 0.263532
vt 0.250409 0.372066
vt 0.155802 0.367955
vt 0.155802 0.259421
vt 0.061195 0.372066
vt 0.061194 0.263532
vt 0.104328 0.260602
vt 0.104328 0.369136
vt 0.059634 0.372272
vt 0.059634 0.263739
vt 0.248848 0.263739
vt 0.248848 0.372272
vn -1.0000 0.0000 0.0000
vn 0.0000 -1.0000 0.0000
vn 0.0000 0.0000 -1.0000
vn 1.0000 0.0000 0.0000
vn 0.0000 0.0000 1.0000
vn 0.0000 -0.1789 -0.9839
vn 0.0000 0.1789 0.9839
vn 0.0000 1.0000 0.0000
vn 0.0000 -0.1104 0.9939
vn 0.0000 0.1104 -0.9939
vn 0.0665 -0.9855 0.1561
vn -0.0214 0.9875 -0.1564
vn -0.0665 0.9855 -0.1561
vn 0.0665 0.9855 -0.1561
vn 0.0214 -0.9875 0.1564
vn 0.0214 0.9875 -0.1564
vn -0.0665 -0.9855 0.1561
vn -0.0214 -0.9875 0.1564
vn 0.9998 0.0000 0.0205
vn -0.9998 0.0000 -0.0205
vn 0.9998 0.0000 -0.0205
vn -0.9998 0.0000 0.0205
vn 0.2144 0.1673 0.9623
vn 0.2207 0.1671 0.9609
vn 0.0000 0.1713 0.9852
vn -0.2207 0.1671 0.9609
vn -0.2144 0.1673 0.9623
vn 0.2207 -0.1671 -0.9609
vn 0.2144 -0.1673 -0.9623
vn 0.3234 -0.1621 -0.9323
vn 0.0000 -0.1713 -0.9852
vn -0.3234 -0.1621 -0.9323
vn -0.2144 -0.1673 -0.9623
vn -0.2207 -0.1671 -0.9609
vn -0.3234 0.1621 0.9323
vn 0.3234 0.1621 0.9323
s off
f 13/1/1 20/2/1 17/3/1 9/4/1
f 2/5/2 4/6/2 3/7/2 1/8/2
f 1/9/3 8/10/3 5/11/3 2/12/3
f 2/12/4 5/11/4 6/13/4 4/14/4
f 4/14/5 6/13/5 7/15/5 3/16/5
f 17/3/6 10/17/6 12/18/6 18/19/6
f 18/19/4 12/18/4 16/20/4 19/21/4
f 19/21/7 16/20/7 14/22/7 20/2/7
f 20/2/1 14/22/1 10/17/1 17/3/1
f 11/23/2 15/24/2 13/25/2 9/26/2
f 16/27/8 12/28/8 10/29/8 14/30/8
f 15/31/9 19/21/9 20/2/9 13/1/9
f 11/32/4 18/19/4 19/21/4 15/31/4
f 17/3/10 18/19/10 11/32/10 9/4/10
f 3/16/1 7/15/1 8/10/1 1/9/1
f 33/33/4 29/34/4 37/35/4 40/36/4
f 22/37/2 21/38/2 23/39/2 24/40/2
f 21/41/3 22/42/3 25/43/3 28/44/3
f 22/42/1 24/45/1 26/46/1 25/43/1
f 24/45/5 23/47/5 27/48/5 26/46/5
f 37/35/6 38/49/6 32/50/6 30/51/6
f 38/49/1 39/52/1 36/53/1 32/50/1
f 39/52/7 40/36/7 34/54/7 36/53/7
f 40/36/4 37/35/4 30/51/4 34/54/4
f 31/55/2 29/56/2 33/57/2 35/58/2
f 36/59/8 34/60/8 30/61/8 32/62/8
f 35/63/9 33/33/9 40/36/9 39/52/9
f 31/64/1 35/63/1 39/52/1 38/49/1
f 37/35/10 29/34/10 31/64/10 38/49/10
f 23/47/4 21/41/4 28/44/4 27/48/4
f 5/65/8 8/66/8 7/67/8 6/68/8
f 28/69/8 25/70/8 26/71/8 27/72/8
f 46/73/1 42/74/1 44/75/1 48/76/1
f 45/77/2 41/78/2 42/79/2 46/80/2
f 48/81/8 44/82/8 43/83/8 47/84/8
f 47/85/4 43/86/4 41/87/4 45/88/4
f 42/74/5 41/87/5 43/86/5 44/75/5
f 46/73/3 48/76/3 47/85/3 45/88/3
f 68/89/11 50/90/11 54/91/11 61/92/11
f 65/93/12 63/94/12 57/95/12 64/96/12
f 49/97/13 65/93/13 64/96/13 53/98/13
f 62/99/14 51/100/14 55/101/14 60/102/14
f 67/103/15 68/89/15 61/92/15 59/104/15
f 63/94/16 62/99/16 60/102/16 57/95/16
f 52/105/17 66/106/17 58/107/17 56/108/17
f 66/106/18 67/103/18 59/104/18 58/107/18
f 50/109/1 49/110/1 53/111/1 54/112/1
f 51/113/4 52/114/4 56/115/4 55/116/4
f 74/117/5 76/118/5 72/119/5 70/120/5
f 73/121/2 74/122/2 70/123/2 69/124/2
f 75/125/3 73/126/3 69/127/3 71/128/3
f 82/129/5 84/130/5 80/131/5 78/132/5
f 81/133/2 82/134/2 78/135/2 77/136/2
f 83/137/3 81/138/3 77/139/3 79/140/3
f 90/141/19 92/142/19 88/143/19 86/144/19
f 89/145/2 90/146/2 86/147/2 85/148/2
f 91/149/20 89/150/20 85/151/20 87/152/20
f 98/153/21 100/154/21 96/155/21 94/156/21
f 97/157/2 98/158/2 94/159/2 93/160/2
f 99/161/22 97/162/22 93/163/22 95/164/22
f 80/165/8 84/166/8 83/167/8 79/168/8
f 96/169/8 100/170/8 99/171/8 95/172/8
f 72/173/8 76/174/8 75/175/8 71/176/8
f 88/177/8 92/178/8 91/179/8 87/180/8
s 1
f 65/181/23 68/182/24 67/183/25 63/184/25
f 63/184/25 67/183/25 66/185/26 62/186/27
f 58/187/28 60/188/29 55/189/30 56/190/30
f 59/191/31 57/192/31 60/188/29 58/187/28
f 54/193/32 53/194/32 64/195/33 61/196/34
f 62/186/27 66/185/26 52/197/35 51/198/35
f 61/196/34 64/195/33 57/192/31 59/191/31
f 49/199/36 50/200/36 68/182/24 65/181/23
