# Blender v2.83.3 OBJ File: 'Main24.blend'
# www.blender.org
o CookingPot_Cylinder.004
v 0.143395 0.254540 -0.143401
v 0.195884 0.254540 -0.052489
v 0.195884 0.254540 0.052489
v 0.143395 0.254540 0.143401
v 0.052482 0.254540 0.195890
v -0.052495 0.254540 0.195890
v -0.143407 0.254540 0.143401
v -0.195896 0.254540 0.052489
v -0.195896 0.254540 -0.052488
v -0.143407 0.254540 -0.143401
v -0.052495 0.254540 -0.195890
v 0.052482 0.254540 -0.195890
v 0.145105 0.000000 -0.038882
v 0.106223 0.000000 -0.106229
v 0.145105 0.000000 0.038882
v 0.106223 0.000000 0.106229
v 0.038876 0.000000 0.145111
v -0.038889 0.000000 0.145111
v -0.106235 0.000000 0.106229
v -0.145117 0.000000 0.038882
v -0.145117 0.000000 -0.038882
v -0.106235 0.000000 -0.106229
v -0.038889 0.000000 -0.145111
v 0.038876 0.000000 -0.145111
v 0.144782 0.002390 -0.038796
v 0.105986 0.002390 -0.105992
v 0.144782 0.002390 0.038796
v 0.105986 0.002390 0.105992
v 0.038790 0.002390 0.144788
v -0.038802 0.002390 0.144788
v -0.105998 0.002390 0.105992
v -0.144794 0.002390 0.038796
v -0.144794 0.002390 -0.038796
v -0.105998 0.002390 -0.105992
v -0.038802 0.002390 -0.144788
v 0.038790 0.002390 -0.144788
v 0.180552 0.256370 -0.048380
v 0.132172 0.256370 -0.132178
v 0.180552 0.256370 0.048380
v 0.132172 0.256370 0.132178
v 0.048374 0.256370 0.180558
v -0.048387 0.256370 0.180558
v -0.132184 0.256370 0.132178
v -0.180564 0.256370 0.048381
v -0.180565 0.256370 -0.048380
v -0.132184 0.256370 -0.132178
v -0.048387 0.256370 -0.180558
v 0.048374 0.256370 -0.180558
v 0.144641 0.026460 -0.144647
v 0.197585 0.026460 -0.052944
v 0.197585 0.026460 0.052944
v 0.144641 0.026460 0.144647
v 0.052938 0.026460 0.197591
v -0.052951 0.026460 0.197591
v -0.144653 0.026460 0.144647
v -0.197598 0.026460 0.052945
v -0.197598 0.026460 -0.052944
v -0.144653 0.026460 -0.144647
v -0.052951 0.026460 -0.197591
v 0.052938 0.026460 -0.197591
v -0.165209 0.226891 -0.090955
v -0.213541 0.227109 -0.088798
v -0.165209 0.209238 0.065910
v -0.165209 0.226891 0.065910
v -0.165209 0.209238 -0.090955
v -0.203399 0.209021 0.067151
v -0.213541 0.209021 -0.088798
v -0.203399 0.227109 0.067151
v -0.203400 0.227109 -0.066680
v -0.203400 0.209021 -0.066680
v -0.213540 0.209021 0.089270
v -0.165209 0.209238 0.091427
v -0.213540 0.227109 0.089270
v -0.165209 0.226891 0.091427
v -0.165209 0.226891 -0.065438
v -0.165209 0.209238 -0.065438
v -0.273188 0.227109 0.000236
v -0.273188 0.209021 0.000236
v -0.255390 0.227109 0.000236
v -0.255390 0.209021 0.000236
v -0.254794 0.227109 -0.058937
v -0.254794 0.209021 -0.058937
v -0.240853 0.209021 -0.045777
v -0.240853 0.227109 -0.045777
v -0.240853 0.209021 0.046248
v -0.240853 0.227109 0.046248
v -0.254793 0.209021 0.059409
v -0.254793 0.227109 0.059409
v 0.166811 0.226891 -0.090955
v 0.215144 0.227109 -0.088798
v 0.166811 0.209238 0.065910
v 0.166811 0.226891 0.065910
v 0.166811 0.209238 -0.090955
v 0.205002 0.209021 0.067151
v 0.215144 0.209021 -0.088798
v 0.205002 0.227109 0.067151
v 0.205002 0.227109 -0.066680
v 0.205002 0.209021 -0.066680
v 0.215143 0.209021 0.089270
v 0.166811 0.209238 0.091427
v 0.215143 0.227109 0.089270
v 0.166811 0.226891 0.091427
v 0.166811 0.226891 -0.065438
v 0.166811 0.209238 -0.065438
v 0.274791 0.227109 0.000236
v 0.274791 0.209021 0.000236
v 0.256993 0.227109 0.000236
v 0.256993 0.209021 0.000236
v 0.256396 0.227109 -0.058937
v 0.256396 0.209021 -0.058937
v 0.242456 0.209021 -0.045777
v 0.242456 0.227109 -0.045777
v 0.242455 0.209021 0.046248
v 0.242455 0.227109 0.046248
v 0.256396 0.209021 0.059409
v 0.256396 0.227109 0.059409
vt 0.136424 0.904086
vt 0.113703 0.904086
vt 0.105387 0.904086
vt 0.113703 0.904086
vt 0.136424 0.904086
vt 0.167460 0.904086
vt 0.198492 0.904086
vt 0.221214 0.904086
vt 0.229530 0.904086
vt 0.221214 0.904086
vt 0.198492 0.904086
vt 0.167460 0.904086
vt 0.187443 0.809957
vt 0.187443 0.855712
vt 0.148706 0.855712
vt 0.152557 0.809957
vt 0.120349 0.855712
vt 0.127018 0.809957
vt 0.109970 0.855712
vt 0.117670 0.809957
vt 0.120349 0.855712
vt 0.127018 0.809957
vt 0.148706 0.855712
vt 0.152557 0.809957
vt 0.187443 0.855712
vt 0.187444 0.809957
vt 0.226178 0.855712
vt 0.222327 0.809957
vt 0.254533 0.855712
vt 0.247865 0.809957
vt 0.264913 0.855712
vt 0.257213 0.809957
vt 0.254533 0.855712
vt 0.247865 0.809957
vt 0.226178 0.855712
vt 0.222327 0.809957
vt 0.123170 0.915807
vt 0.163116 0.926510
vt 0.203061 0.915807
vt 0.232304 0.886565
vt 0.243007 0.846619
vt 0.232304 0.806673
vt 0.203061 0.777431
vt 0.163116 0.766727
vt 0.123170 0.777431
vt 0.093927 0.806673
vt 0.083224 0.846619
vt 0.093927 0.886565
vt 0.167367 0.772466
vt 0.123720 0.772466
vt 0.112937 0.854449
vt 0.167367 0.854449
vt 0.091769 0.772466
vt 0.073094 0.854449
vt 0.080077 0.772466
vt 0.058509 0.854449
vt 0.091769 0.772466
vt 0.073094 0.854449
vt 0.123720 0.772466
vt 0.112937 0.854449
vt 0.167367 0.772466
vt 0.167367 0.854449
vt 0.211012 0.772466
vt 0.221795 0.854449
vt 0.242964 0.772466
vt 0.261639 0.854449
vt 0.254657 0.772466
vt 0.276225 0.854449
vt 0.242964 0.772466
vt 0.261639 0.854449
vt 0.211012 0.772466
vt 0.221795 0.854449
vt 0.241367 0.478623
vt 0.235478 0.478623
vt 0.235362 0.479456
vt 0.241234 0.479456
vt 0.197409 0.478623
vt 0.175430 0.478623
vt 0.175497 0.479456
vt 0.197409 0.479456
vt 0.153451 0.478623
vt 0.159340 0.478623
vt 0.159456 0.479456
vt 0.153586 0.479456
vt 0.235478 0.478623
vt 0.235362 0.479456
vt 0.219389 0.478623
vt 0.219322 0.479456
vt 0.159340 0.478623
vt 0.159456 0.479456
vt 0.219389 0.478623
vt 0.219322 0.479456
vt 0.175430 0.478623
vt 0.197409 0.478623
vt 0.197409 0.479456
vt 0.175497 0.479456
vt 0.218475 0.764203
vt 0.187443 0.764203
vt 0.241197 0.764203
vt 0.249513 0.764203
vt 0.241197 0.764203
vt 0.218475 0.764203
vt 0.187443 0.764203
vt 0.156408 0.764203
vt 0.133685 0.764203
vt 0.125369 0.764203
vt 0.133685 0.764203
vt 0.156408 0.764203
vt 0.221548 0.921384
vt 0.221548 0.921384
vt 0.147083 0.921379
vt 0.147083 0.921379
vt 0.239312 0.885485
vt 0.243479 0.877064
vt 0.243479 0.877064
vt 0.239312 0.885485
vt 0.241291 0.881485
vt 0.241291 0.881485
vt 0.202276 0.650371
vt 0.150192 0.653733
vt 0.150192 0.653733
vt 0.202276 0.650371
vt 0.221548 0.921384
vt 0.221548 0.921384
vt 0.142645 0.669024
vt 0.164448 0.623970
vt 0.164448 0.623970
vt 0.142645 0.669024
vt 0.163779 0.679612
vt 0.145366 0.669793
vt 0.164448 0.623970
vt 0.179587 0.639113
vt 0.252737 0.618359
vt 0.253243 0.639117
vt 0.253243 0.639117
vt 0.179587 0.639113
vt 0.252737 0.618358
vt 0.202276 0.650371
vt 0.202276 0.650371
vt 0.150192 0.653733
vt 0.150192 0.653733
vt 0.162017 0.674622
vt 0.179587 0.639113
vt 0.253243 0.639117
vt 0.252737 0.618359
vt 0.145366 0.669793
vt 0.164448 0.623970
vt 0.139570 0.675380
vt 0.139570 0.675380
vt 0.147083 0.921379
vt 0.147083 0.921379
vt 0.253243 0.639117
vt 0.252737 0.618359
vt 0.179587 0.639113
vt 0.162017 0.674622
vt 0.157895 0.682951
vt 0.163779 0.679612
vt 0.157895 0.682951
vt 0.221548 0.921384
vt 0.147083 0.921379
vt 0.147083 0.921379
vt 0.221548 0.921384
vt 0.239312 0.885485
vt 0.239312 0.885485
vt 0.243479 0.877064
vt 0.243479 0.877064
vt 0.241291 0.881485
vt 0.241291 0.881485
vt 0.202276 0.650371
vt 0.202276 0.650371
vt 0.150192 0.653733
vt 0.150192 0.653733
vt 0.221548 0.921384
vt 0.221548 0.921384
vt 0.142645 0.669024
vt 0.142645 0.669024
vt 0.164448 0.623970
vt 0.164448 0.623970
vt 0.163779 0.679612
vt 0.179587 0.639113
vt 0.164448 0.623970
vt 0.145366 0.669793
vt 0.253243 0.639117
vt 0.252737 0.618359
vt 0.253243 0.639117
vt 0.252737 0.618358
vt 0.179587 0.639113
vt 0.202276 0.650371
vt 0.150192 0.653733
vt 0.150192 0.653733
vt 0.202276 0.650371
vt 0.162017 0.674622
vt 0.179587 0.639113
vt 0.252737 0.618359
vt 0.253243 0.639117
vt 0.164448 0.623970
vt 0.145366 0.669793
vt 0.139570 0.675380
vt 0.139570 0.675380
vt 0.147083 0.921379
vt 0.147083 0.921379
vt 0.253243 0.639117
vt 0.179587 0.639113
vt 0.252737 0.618359
vt 0.162017 0.674622
vt 0.157895 0.682951
vt 0.163779 0.679612
vt 0.157895 0.682951
vn 0.0000 -1.0000 0.0000
vn 0.8660 0.0075 -0.5000
vn 1.0000 0.0075 0.0000
vn 0.8660 0.0075 0.5000
vn 0.5000 0.0075 0.8660
vn -0.0000 0.0075 1.0000
vn -0.5000 0.0075 0.8660
vn -0.8660 0.0075 0.5000
vn -1.0000 0.0075 0.0000
vn -0.8660 0.0075 -0.5000
vn -0.5000 0.0075 -0.8660
vn -0.0000 0.0075 -1.0000
vn 0.5000 0.0075 -0.8660
vn 0.0000 1.0000 0.0000
vn -0.8576 0.1395 0.4951
vn -0.9902 0.1395 0.0000
vn -0.8576 0.1395 -0.4951
vn -0.4951 0.1395 -0.8576
vn 0.0000 0.1395 -0.9902
vn 0.4951 0.1395 -0.8576
vn 0.8576 0.1395 -0.4951
vn 0.9902 0.1395 -0.0000
vn 0.8576 0.1395 0.4951
vn 0.4951 0.1395 0.8576
vn 0.0000 0.1395 0.9902
vn -0.4951 0.1395 0.8576
vn -0.1026 0.9930 -0.0592
vn -0.0592 0.9930 0.1026
vn 0.1026 0.9930 0.0592
vn -0.0592 0.9930 -0.1026
vn -0.1026 0.9930 0.0592
vn 0.0592 0.9930 0.1026
vn -0.0000 0.9930 -0.1185
vn 0.1026 0.9930 -0.0592
vn -0.1185 0.9930 0.0000
vn 0.0000 0.9930 0.1185
vn 0.0592 0.9930 -0.1026
vn 0.1185 0.9930 0.0000
vn 0.2251 -0.8929 -0.3899
vn -0.0000 -0.8929 -0.4502
vn -0.2251 -0.8929 -0.3899
vn -0.3899 -0.8929 -0.2251
vn -0.4502 -0.8929 0.0000
vn -0.3899 -0.8929 0.2251
vn -0.2251 -0.8929 0.3899
vn -0.0000 -0.8929 0.4502
vn 0.2251 -0.8929 0.3899
vn 0.3899 -0.8929 0.2251
vn 0.4502 -0.8929 0.0000
vn 0.3899 -0.8929 -0.2251
vn -0.0325 0.0000 -0.9995
vn 0.9535 0.0000 0.3013
vn 0.4873 0.0000 -0.8732
vn -0.0446 0.0000 0.9990
vn 0.4873 0.0000 0.8732
vn -0.5864 0.0000 0.8101
vn 0.0050 -1.0000 -0.0011
vn 0.0050 1.0000 0.0011
vn -0.0446 0.0000 -0.9990
vn 0.0050 -1.0000 0.0011
vn -0.5864 0.0000 -0.8101
vn -0.9549 0.0000 -0.2968
vn -0.0325 0.0000 0.9995
vn 0.0050 1.0000 -0.0011
vn -0.9549 0.0000 0.2969
vn 0.9535 0.0000 -0.3013
vn 0.0325 0.0000 -0.9995
vn -0.9535 0.0000 0.3013
vn -0.4873 0.0000 -0.8732
vn 0.0446 0.0000 0.9990
vn -0.4873 0.0000 0.8732
vn 0.5864 0.0000 0.8101
vn -0.0050 -1.0000 -0.0011
vn -0.0050 1.0000 0.0011
vn 0.0446 0.0000 -0.9990
vn -0.0050 -1.0000 0.0011
vn 0.5864 0.0000 -0.8101
vn 0.9549 0.0000 -0.2968
vn 0.0325 0.0000 0.9995
vn -0.0050 1.0000 -0.0011
vn 0.9549 0.0000 0.2969
vn -0.9535 0.0000 -0.3013
s off
f 13/1/1 15/2/1 16/3/1 17/4/1 18/5/1 19/6/1 20/7/1 21/8/1 22/9/1 23/10/1 24/11/1 14/12/1
f 49/13/2 1/14/2 2/15/2 50/16/2
f 50/16/3 2/15/3 3/17/3 51/18/3
f 51/18/4 3/17/4 4/19/4 52/20/4
f 52/20/5 4/19/5 5/21/5 53/22/5
f 53/22/6 5/21/6 6/23/6 54/24/6
f 54/24/7 6/23/7 7/25/7 55/26/7
f 55/26/8 7/25/8 8/27/8 56/28/8
f 56/28/9 8/27/9 9/29/9 57/30/9
f 57/30/10 9/29/10 10/31/10 58/32/10
f 58/32/11 10/31/11 11/33/11 59/34/11
f 59/34/12 11/33/12 12/35/12 60/36/12
f 60/36/13 12/35/13 1/14/13 49/13/13
f 25/37/14 26/38/14 36/39/14 35/40/14 34/41/14 33/42/14 32/43/14 31/44/14 30/45/14 29/46/14 28/47/14 27/48/14
f 26/49/15 25/50/15 37/51/15 38/52/15
f 25/50/16 27/53/16 39/54/16 37/51/16
f 27/53/17 28/55/17 40/56/17 39/54/17
f 28/55/18 29/57/18 41/58/18 40/56/18
f 29/57/19 30/59/19 42/60/19 41/58/19
f 30/59/20 31/61/20 43/62/20 42/60/20
f 31/61/21 32/63/21 44/64/21 43/62/21
f 32/63/22 33/65/22 45/66/22 44/64/22
f 33/65/23 34/67/23 46/68/23 45/66/23
f 34/67/24 35/69/24 47/70/24 46/68/24
f 35/69/25 36/71/25 48/72/25 47/70/25
f 36/71/26 26/49/26 38/52/26 48/72/26
f 10/73/27 9/74/27 45/75/27 46/76/27
f 7/77/28 6/78/28 42/79/28 43/80/28
f 4/81/29 3/82/29 39/83/29 40/84/29
f 11/85/30 10/73/30 46/76/30 47/86/30
f 8/87/31 7/77/31 43/80/31 44/88/31
f 5/89/32 4/81/32 40/84/32 41/90/32
f 12/91/33 11/85/33 47/86/33 48/92/33
f 2/93/34 1/94/34 38/95/34 37/96/34
f 9/74/35 8/87/35 44/88/35 45/75/35
f 6/78/36 5/89/36 41/90/36 42/79/36
f 1/94/37 12/91/37 48/92/37 38/95/37
f 3/82/38 2/93/38 37/96/38 39/83/38
f 24/97/39 60/36/39 49/13/39 14/98/39
f 23/99/40 59/34/40 60/36/40 24/97/40
f 22/100/41 58/32/41 59/34/41 23/99/41
f 21/101/42 57/30/42 58/32/42 22/100/42
f 20/102/43 56/28/43 57/30/43 21/101/43
f 19/103/44 55/26/44 56/28/44 20/102/44
f 18/104/45 54/24/45 55/26/45 19/103/45
f 17/105/46 53/22/46 54/24/46 18/104/46
f 16/106/47 52/20/47 53/22/47 17/105/47
f 15/107/48 51/18/48 52/20/48 16/106/48
f 13/108/49 50/16/49 51/18/49 15/107/49
f 14/98/50 49/13/50 50/16/50 13/108/50
f 66/109/51 68/110/51 64/111/51 63/112/51
f 84/113/52 79/114/52 80/115/52 83/116/52
f 85/117/53 86/118/53 68/110/53 66/109/53
f 71/119/54 72/120/54 74/121/54 73/122/54
f 83/116/55 70/123/55 69/124/55 84/113/55
f 87/125/56 71/126/56 73/127/56 88/128/56
f 83/129/1 82/130/1 67/131/1 70/132/1
f 70/132/57 67/131/57 65/133/57 76/134/57
f 64/135/58 68/136/58 73/127/58 74/137/58
f 67/138/59 62/139/59 61/140/59 65/141/59
f 85/142/1 66/143/1 71/126/1 87/125/1
f 66/143/60 63/144/60 72/145/60 71/126/60
f 82/130/61 81/146/61 62/147/61 67/131/61
f 82/130/62 78/148/62 77/149/62 81/146/62
f 70/123/63 76/150/63 75/151/63 69/124/63
f 75/152/64 61/153/64 62/147/64 69/154/64
f 86/155/14 79/156/14 77/149/14 88/128/14
f 79/156/14 84/157/14 81/146/14 77/149/14
f 69/154/14 62/147/14 81/146/14 84/157/14
f 68/136/14 86/155/14 88/128/14 73/127/14
f 83/129/1 80/158/1 78/148/1 82/130/1
f 80/158/1 85/142/1 87/125/1 78/148/1
f 78/148/65 87/125/65 88/128/65 77/149/65
f 79/114/66 86/118/66 85/117/66 80/115/66
f 94/159/67 91/160/67 92/161/67 96/162/67
f 112/163/68 111/164/68 108/165/68 107/166/68
f 113/167/69 94/159/69 96/162/69 114/168/69
f 99/169/70 101/170/70 102/171/70 100/172/70
f 111/164/71 112/163/71 97/173/71 98/174/71
f 115/175/72 116/176/72 101/177/72 99/178/72
f 111/179/1 98/180/1 95/181/1 110/182/1
f 98/180/73 104/183/73 93/184/73 95/181/73
f 92/185/74 102/186/74 101/177/74 96/187/74
f 95/188/75 93/189/75 89/190/75 90/191/75
f 113/192/1 115/175/1 99/178/1 94/193/1
f 94/193/76 99/178/76 100/194/76 91/195/76
f 110/182/77 95/181/77 90/196/77 109/197/77
f 110/182/78 109/197/78 105/198/78 106/199/78
f 98/174/79 97/173/79 103/200/79 104/201/79
f 103/202/80 97/203/80 90/196/80 89/204/80
f 114/205/14 116/176/14 105/198/14 107/206/14
f 107/206/14 105/198/14 109/197/14 112/207/14
f 97/203/14 112/207/14 109/197/14 90/196/14
f 96/187/14 101/177/14 116/176/14 114/205/14
f 111/179/1 110/182/1 106/199/1 108/208/1
f 108/208/1 106/199/1 115/175/1 113/192/1
f 106/199/81 105/198/81 116/176/81 115/175/81
f 107/166/82 108/165/82 113/167/82 114/168/82
