# Blender v2.83.3 OBJ File: 'Main33.blend'
# www.blender.org
o Cup_01_Cylinder.015
v -0.000006 0.136931 -0.048431
v 0.024209 0.136931 -0.041942
v 0.041936 0.136931 -0.024215
v 0.048425 0.136931 0.000000
v 0.041936 0.136931 0.024215
v 0.024209 0.136931 0.041942
v -0.000006 0.136931 0.048431
v -0.024221 0.136931 0.041942
v -0.041948 0.136931 0.024215
v -0.048437 0.136931 0.000000
v -0.041948 0.136931 -0.024215
v -0.024221 0.136931 -0.041942
v 0.027604 0.000143 -0.047821
v -0.000006 0.000143 -0.055219
v 0.047815 0.000143 -0.027610
v 0.055213 0.000143 0.000000
v 0.047815 0.000143 0.027610
v 0.027604 0.000143 0.047821
v -0.000006 0.000143 0.055219
v -0.027616 0.000143 0.047821
v -0.047827 0.000143 0.027610
v -0.055225 0.000143 0.000000
v -0.047827 0.000143 -0.027610
v -0.027616 0.000143 -0.047821
v 0.025896 0.001167 -0.044864
v -0.000006 0.001167 -0.051804
v 0.044857 0.001167 -0.025902
v 0.051798 0.001167 0.000000
v 0.044857 0.001167 0.025902
v 0.025896 0.001167 0.044864
v -0.000006 0.001167 0.051804
v -0.025908 0.001167 0.044864
v -0.044870 0.001167 0.025902
v -0.051810 0.001167 0.000000
v -0.044870 0.001167 -0.025902
v -0.025908 0.001167 -0.044863
v 0.020730 0.137204 -0.035917
v -0.000006 0.137204 -0.041473
v 0.035911 0.137204 -0.020737
v 0.041467 0.137204 0.000000
v 0.035911 0.137204 0.020737
v 0.020730 0.137204 0.035917
v -0.000006 0.137204 0.041473
v -0.020743 0.137204 0.035917
v -0.035923 0.137204 0.020737
v -0.041479 0.137204 0.000000
v -0.035923 0.137204 -0.020737
v -0.020743 0.137204 -0.035917
v -0.000006 0.127627 -0.048820
v 0.024404 0.127627 -0.042279
v 0.042273 0.127627 -0.024410
v 0.048814 0.127627 0.000000
v 0.042273 0.127627 0.024410
v 0.024404 0.127627 0.042279
v -0.000006 0.127627 0.048820
v -0.024416 0.127627 0.042279
v -0.042285 0.127627 0.024410
v -0.048826 0.127627 0.000000
v -0.042285 0.127627 -0.024410
v -0.024416 0.127627 -0.042279
v -0.050277 0.015041 0.010725
v -0.050277 0.015041 -0.008906
v -0.043735 0.121064 0.010725
v -0.043735 0.121064 -0.008906
v -0.079779 0.032304 0.010725
v -0.079779 0.121066 0.010725
v -0.079779 0.032304 -0.008906
v -0.079779 0.121066 -0.008906
v -0.051127 0.005648 -0.008906
v -0.051127 0.005648 0.010725
v -0.086447 0.127735 0.010725
v -0.043237 0.130482 0.010725
v -0.086447 0.127735 -0.008906
v -0.043237 0.130482 -0.008906
v -0.088492 0.028695 0.010725
v -0.088492 0.028695 -0.008906
v -0.098886 0.082450 0.010725
v -0.098886 0.082450 -0.008906
v -0.108364 0.082450 0.010725
v -0.108364 0.082450 -0.008906
v -0.000006 0.000143 0.000000
v -0.000006 0.001167 0.000000
vt 0.129091 0.522830
vt 0.169224 0.533583
vt 0.169224 0.453318
vt 0.193665 0.416486
vt 0.193665 0.462454
vt 0.154746 0.462454
vt 0.158616 0.416486
vt 0.126259 0.462454
vt 0.132958 0.416485
vt 0.115831 0.462454
vt 0.123566 0.416486
vt 0.126259 0.462454
vt 0.132958 0.416486
vt 0.154746 0.462454
vt 0.158616 0.416486
vt 0.193665 0.462454
vt 0.193665 0.416486
vt 0.232580 0.462454
vt 0.228712 0.416486
vt 0.261069 0.462454
vt 0.254369 0.416486
vt 0.271497 0.462454
vt 0.263761 0.416486
vt 0.261069 0.462454
vt 0.254369 0.416486
vt 0.232580 0.462454
vt 0.228712 0.416486
vt 0.173495 0.378819
vt 0.129645 0.378819
vt 0.118812 0.461185
vt 0.173495 0.461185
vt 0.097544 0.378819
vt 0.078782 0.461185
vt 0.085797 0.378819
vt 0.064128 0.461185
vt 0.097544 0.378819
vt 0.078782 0.461185
vt 0.129645 0.378819
vt 0.118812 0.461185
vt 0.173495 0.378819
vt 0.173495 0.461185
vt 0.217344 0.378819
vt 0.228178 0.461185
vt 0.249445 0.378819
vt 0.268208 0.461185
vt 0.261192 0.378819
vt 0.282861 0.461185
vt 0.249445 0.378819
vt 0.268208 0.461185
vt 0.217344 0.378819
vt 0.228178 0.461185
vt 0.249731 0.079444
vt 0.243815 0.079444
vt 0.243698 0.080282
vt 0.249597 0.080282
vt 0.205568 0.079444
vt 0.183487 0.079444
vt 0.183553 0.080282
vt 0.205568 0.080282
vt 0.161405 0.079444
vt 0.167321 0.079444
vt 0.167438 0.080282
vt 0.161540 0.080282
vt 0.243815 0.079444
vt 0.243698 0.080282
vt 0.227649 0.079444
vt 0.227582 0.080282
vt 0.167321 0.079444
vt 0.167438 0.080282
vt 0.227649 0.079444
vt 0.227582 0.080282
vt 0.183487 0.079444
vt 0.205568 0.079444
vt 0.205568 0.080282
vt 0.183553 0.080282
vt 0.224843 0.370518
vt 0.193665 0.370518
vt 0.247670 0.370518
vt 0.256025 0.370518
vt 0.247670 0.370518
vt 0.224843 0.370518
vt 0.193665 0.370518
vt 0.162485 0.370518
vt 0.139657 0.370518
vt 0.131302 0.370518
vt 0.139657 0.370518
vt 0.162485 0.370518
vt 0.233465 0.534994
vt 0.233465 0.534994
vt 0.140303 0.534988
vt 0.140303 0.534988
vt 0.157215 0.260966
vt 0.157215 0.260966
vt 0.233465 0.305585
vt 0.233465 0.305585
vt 0.282851 0.435190
vt 0.282851 0.435190
vt 0.211765 0.229845
vt 0.146605 0.234050
vt 0.146605 0.234050
vt 0.211765 0.229845
vt 0.178794 0.487513
vt 0.206726 0.516357
vt 0.206726 0.516357
vt 0.178794 0.487513
vt 0.113147 0.315888
vt 0.169173 0.200118
vt 0.169173 0.200118
vt 0.113147 0.315888
vt 0.186218 0.444083
vt 0.261640 0.488216
vt 0.259459 0.512228
vt 0.163944 0.453311
vt 0.261640 0.488216
vt 0.186218 0.444083
vt 0.163944 0.453311
vt 0.259459 0.512228
vt 0.278367 0.217173
vt 0.186218 0.217168
vt 0.279628 0.193097
vt 0.137370 0.315888
vt 0.137370 0.315888
vt 0.186218 0.217168
vt 0.278367 0.217173
vt 0.279628 0.193097
vt 0.142407 0.511054
vt 0.119580 0.511054
vt 0.173587 0.511054
vt 0.111224 0.511054
vt 0.119580 0.511054
vt 0.142407 0.511054
vt 0.173588 0.511054
vt 0.204766 0.511054
vt 0.227594 0.511054
vt 0.235948 0.511054
vt 0.227594 0.511054
vt 0.204766 0.511054
vt 0.173588 0.511054
vt 0.209356 0.522830
vt 0.238735 0.493451
vt 0.249489 0.453318
vt 0.238735 0.413186
vt 0.209356 0.383807
vt 0.169224 0.373053
vt 0.129091 0.383807
vt 0.099712 0.413186
vt 0.088960 0.453318
vt 0.099712 0.493451
vn 0.0000 1.0000 0.0000
vn 0.2586 0.0403 -0.9651
vn 0.7065 0.0403 -0.7065
vn 0.9651 0.0403 -0.2586
vn 0.9651 0.0403 0.2586
vn 0.7065 0.0403 0.7065
vn 0.2586 0.0403 0.9651
vn -0.2586 0.0403 0.9651
vn -0.7065 0.0403 0.7065
vn -0.9651 0.0403 0.2586
vn -0.9651 0.0403 -0.2586
vn -0.7065 0.0403 -0.7065
vn -0.2586 0.0403 -0.9651
vn -0.2581 -0.0732 0.9633
vn -0.7052 -0.0732 0.7052
vn -0.9633 -0.0732 0.2581
vn -0.9633 -0.0732 -0.2581
vn -0.7052 -0.0732 -0.7052
vn -0.2581 -0.0732 -0.9633
vn 0.2581 -0.0732 -0.9633
vn 0.7052 -0.0732 -0.7052
vn 0.9633 -0.0732 -0.2581
vn 0.9633 -0.0732 0.2581
vn 0.7052 -0.0732 0.7052
vn 0.2581 -0.0732 0.9633
vn -0.0392 0.9992 0.0105
vn 0.0105 0.9992 0.0392
vn 0.0392 0.9992 -0.0105
vn -0.0392 0.9992 -0.0105
vn -0.0105 0.9992 0.0392
vn 0.0392 0.9992 0.0105
vn -0.0287 0.9992 -0.0287
vn 0.0105 0.9992 -0.0392
vn -0.0287 0.9992 0.0287
vn 0.0287 0.9992 0.0287
vn -0.0105 0.9992 -0.0392
vn 0.0287 0.9992 -0.0287
vn -0.2585 0.0484 -0.9648
vn -0.7063 0.0484 -0.7063
vn -0.9648 0.0484 -0.2585
vn -0.9648 0.0484 0.2585
vn -0.7063 0.0484 0.7063
vn -0.2585 0.0484 0.9648
vn 0.2585 0.0484 0.9648
vn 0.7063 0.0484 0.7063
vn 0.9648 0.0484 0.2585
vn 0.9648 0.0484 -0.2585
vn 0.7063 0.0484 -0.7063
vn 0.2585 0.0484 -0.9648
vn -0.0001 -1.0000 0.0000
vn 0.5050 0.8631 0.0000
vn 0.8963 -0.4435 0.0000
vn -0.0634 0.9980 0.0000
vn -0.5250 -0.8511 -0.0000
vn -0.9001 0.4356 0.0000
vn 0.0000 0.0000 -1.0000
vn 0.0000 0.0000 1.0000
vn -0.9380 -0.3467 0.0000
vn 0.9345 0.3560 0.0000
vn 0.0000 -1.0000 0.0000
s off
f 25/1/1 26/2/1 82/3/1
f 49/4/2 1/5/2 2/6/2 50/7/2
f 50/7/3 2/6/3 3/8/3 51/9/3
f 51/9/4 3/8/4 4/10/4 52/11/4
f 52/11/5 4/10/5 5/12/5 53/13/5
f 53/13/6 5/12/6 6/14/6 54/15/6
f 54/15/7 6/14/7 7/16/7 55/17/7
f 55/17/8 7/16/8 8/18/8 56/19/8
f 56/19/9 8/18/9 9/20/9 57/21/9
f 57/21/10 9/20/10 10/22/10 58/23/10
f 58/23/11 10/22/11 11/24/11 59/25/11
f 59/25/12 11/24/12 12/26/12 60/27/12
f 60/27/13 12/26/13 1/5/13 49/4/13
f 26/28/14 25/29/14 37/30/14 38/31/14
f 25/29/15 27/32/15 39/33/15 37/30/15
f 27/32/16 28/34/16 40/35/16 39/33/16
f 28/34/17 29/36/17 41/37/17 40/35/17
f 29/36/18 30/38/18 42/39/18 41/37/18
f 30/38/19 31/40/19 43/41/19 42/39/19
f 31/40/20 32/42/20 44/43/20 43/41/20
f 32/42/21 33/44/21 45/45/21 44/43/21
f 33/44/22 34/46/22 46/47/22 45/45/22
f 34/46/23 35/48/23 47/49/23 46/47/23
f 35/48/24 36/50/24 48/51/24 47/49/24
f 36/50/25 26/28/25 38/31/25 48/51/25
f 10/52/26 9/53/26 45/54/26 46/55/26
f 7/56/27 6/57/27 42/58/27 43/59/27
f 4/60/28 3/61/28 39/62/28 40/63/28
f 11/64/29 10/52/29 46/55/29 47/65/29
f 8/66/30 7/56/30 43/59/30 44/67/30
f 5/68/31 4/60/31 40/63/31 41/69/31
f 12/70/32 11/64/32 47/65/32 48/71/32
f 2/72/33 1/73/33 38/74/33 37/75/33
f 9/53/34 8/66/34 44/67/34 45/54/34
f 6/57/35 5/68/35 41/69/35 42/58/35
f 1/73/36 12/70/36 48/71/36 38/74/36
f 3/61/37 2/72/37 37/75/37 39/62/37
f 24/76/38 60/27/38 49/4/38 14/77/38
f 23/78/39 59/25/39 60/27/39 24/76/39
f 22/79/40 58/23/40 59/25/40 23/78/40
f 21/80/41 57/21/41 58/23/41 22/79/41
f 20/81/42 56/19/42 57/21/42 21/80/42
f 19/82/43 55/17/43 56/19/43 20/81/43
f 18/83/44 54/15/44 55/17/44 19/82/44
f 17/84/45 53/13/45 54/15/45 18/83/45
f 16/85/46 52/11/46 53/13/46 17/84/46
f 15/86/47 51/9/47 52/11/47 16/85/47
f 13/87/48 50/7/48 51/9/48 15/86/48
f 14/77/49 49/4/49 50/7/49 13/87/49
f 66/88/50 68/89/50 64/90/50 63/91/50
f 61/92/51 62/93/51 67/94/51 65/95/51
f 77/96/52 78/97/52 68/89/52 66/88/52
f 71/98/53 72/99/53 74/100/53 73/101/53
f 70/102/54 75/103/54 76/104/54 69/105/54
f 79/106/55 71/107/55 73/108/55 80/109/55
f 67/110/56 62/111/56 69/112/56 76/113/56
f 61/114/57 65/115/57 75/116/57 70/117/57
f 64/118/56 68/119/56 73/108/56 74/120/56
f 78/121/56 67/110/56 76/113/56 80/109/56
f 77/122/57 66/123/57 71/107/57 79/106/57
f 66/123/57 63/124/57 72/125/57 71/107/57
f 65/115/57 77/122/57 79/106/57 75/116/57
f 68/119/56 78/121/56 80/109/56 73/108/56
f 75/116/58 79/106/58 80/109/58 76/113/58
f 65/95/59 67/94/59 78/97/59 77/96/59
f 13/126/60 15/127/60 81/128/60
f 15/127/60 16/129/60 81/128/60
f 16/129/60 17/130/60 81/128/60
f 17/130/60 18/131/60 81/128/60
f 18/131/60 19/132/60 81/128/60
f 19/132/60 20/133/60 81/128/60
f 20/133/60 21/134/60 81/128/60
f 21/134/60 22/135/60 81/128/60
f 22/135/60 23/136/60 81/128/60
f 23/136/60 24/137/60 81/128/60
f 24/137/60 14/138/60 81/128/60
f 14/138/60 13/126/60 81/128/60
f 26/2/1 36/139/1 82/3/1
f 36/139/1 35/140/1 82/3/1
f 35/140/1 34/141/1 82/3/1
f 34/141/1 33/142/1 82/3/1
f 33/142/1 32/143/1 82/3/1
f 32/143/1 31/144/1 82/3/1
f 31/144/1 30/145/1 82/3/1
f 30/145/1 29/146/1 82/3/1
f 29/146/1 28/147/1 82/3/1
f 28/147/1 27/148/1 82/3/1
f 27/148/1 25/1/1 82/3/1
