# Blender v2.83.3 OBJ File: 'Main33.blend'
# www.blender.org
o Fruit_Cylinder.017
v 0.000000 -0.000000 -0.076800
v 0.000000 0.109600 -0.049920
v 0.054306 -0.000000 -0.054306
v 0.035299 0.109600 -0.035299
v 0.076800 -0.000000 0.000000
v 0.049920 0.109600 0.000000
v 0.054306 -0.000000 0.054306
v 0.035299 0.109600 0.035299
v -0.000000 -0.000000 0.076800
v -0.000000 0.109600 0.049920
v -0.054306 -0.000000 0.054306
v -0.035299 0.109600 0.035299
v -0.076800 -0.000000 -0.000000
v -0.049920 0.109600 -0.000000
v -0.054306 -0.000000 -0.054306
v -0.035299 0.109600 -0.035299
v 0.000000 0.028800 -0.092160
v 0.065167 0.028800 -0.065167
v 0.092160 0.028800 0.000000
v 0.065167 0.028800 0.065167
v -0.000000 0.028800 0.092160
v -0.065167 0.028800 0.065167
v -0.092160 0.028800 -0.000000
v -0.065167 0.028800 -0.065167
v 0.000000 0.132000 0.000000
v 0.000000 0.074240 -0.087951
v 0.062191 0.074240 -0.062191
v 0.087951 0.074240 0.000000
v 0.062191 0.074240 0.062191
v -0.000000 0.074240 0.087951
v -0.062191 0.074240 0.062191
v -0.087951 0.074240 -0.000000
v -0.062191 0.074240 -0.062191
v -0.027153 -0.000000 -0.065553
v -0.032583 0.028800 -0.078663
v -0.031095 0.074240 -0.075071
v 0.027153 -0.000000 0.065553
v 0.032583 0.028800 0.078663
v 0.031095 0.074240 0.075071
v 0.065553 -0.000000 -0.027153
v 0.078663 0.028800 -0.032583
v 0.075071 0.074240 -0.031095
v -0.065553 -0.000000 0.027153
v -0.078663 0.028800 0.032583
v -0.075071 0.074240 0.031095
vt 0.827799 0.899591
vt 0.827799 0.952683
vt 0.879444 0.952683
vt 0.916585 0.899591
vt 0.953362 0.899591
vt 0.900836 0.952683
vt 0.879444 0.952683
vt 0.916585 0.899591
vt 0.437748 0.477981
vt 0.489393 0.477981
vt 0.445000 0.424889
vt 0.827799 0.899591
vt 0.827799 0.952683
vt 0.776155 0.952683
vt 0.739013 0.899591
vt 0.541038 0.477981
vt 0.489393 0.477981
vt 0.533786 0.424889
vt 0.489393 0.504200
vt 0.416356 0.477981
vt 0.437748 0.477981
vt 0.702237 0.899591
vt 0.754763 0.952683
vt 0.776155 0.952683
vt 0.739013 0.899591
vt 0.541038 0.477981
vt 0.562430 0.477981
vt 0.596567 0.424889
vt 0.827799 0.800991
vt 0.907253 0.800991
vt 0.923708 0.800991
vt 0.940163 0.800991
vt 0.907253 0.800991
vt 0.867526 0.800991
vt 0.827799 0.800991
vt 0.748346 0.800991
vt 0.731891 0.800991
vt 0.715435 0.800991
vt 0.748346 0.800991
vt 0.788073 0.800991
vt 0.780127 0.834700
vt 0.827799 0.834700
vt 0.692962 0.834700
vt 0.732455 0.834700
vt 0.712709 0.834700
vt 0.827799 0.834700
vt 0.732455 0.834700
vt 0.875471 0.834700
vt 0.962636 0.834700
vt 0.923144 0.834700
vt 0.942890 0.834700
vt 0.923144 0.834700
vt 0.827799 0.978901
vt 0.783406 0.899591
vt 0.720625 0.899591
vt 0.872192 0.899591
vt 0.934973 0.899591
vt 0.382219 0.424889
vn 0.2715 0.7049 -0.6554
vn 0.6554 0.7049 0.2715
vn -0.2715 0.7049 -0.6554
vn -0.2715 0.7049 0.6554
vn 0.2715 0.7049 0.6554
vn -0.4036 0.8995 0.1672
vn -0.6554 0.7049 -0.2715
vn 0.6554 0.7049 -0.2715
vn 0.0000 -1.0000 0.0000
vn -0.3433 -0.4420 -0.8287
vn -0.8287 -0.4420 -0.3433
vn -0.8287 -0.4420 0.3433
vn -0.3433 -0.4420 0.8287
vn 0.3433 -0.4420 0.8287
vn 0.8287 -0.4420 0.3433
vn 0.8287 -0.4420 -0.3433
vn 0.3433 -0.4420 -0.8287
vn -0.4036 0.8995 -0.1672
vn -0.1672 0.8995 0.4036
vn 0.4036 0.8995 -0.1672
vn -0.1672 0.8995 -0.4036
vn 0.4036 0.8995 0.1672
vn 0.1672 0.8995 0.4036
vn 0.1672 0.8995 -0.4036
vn -0.3813 0.0853 -0.9205
vn -0.9205 0.0853 -0.3813
vn -0.9205 0.0853 0.3813
vn -0.3813 0.0853 0.9205
vn 0.3813 0.0853 0.9205
vn 0.9205 0.0853 0.3813
vn 0.9205 0.0853 -0.3813
vn 0.3813 0.0853 -0.9205
vn -0.6554 0.7049 0.2715
s off
f 26/1/1 2/2/1 4/3/1 27/4/1
f 28/5/2 6/6/2 8/7/2 29/8/2
f 16/9/3 2/10/3 36/11/3
f 30/12/4 10/13/4 12/14/4 31/15/4
f 8/16/5 10/17/5 39/18/5
f 25/19/6 14/20/6 12/21/6
f 32/22/7 14/23/7 16/24/7 33/25/7
f 4/26/8 6/27/8 42/28/8
f 1/29/9 3/30/9 40/31/9 5/32/9 7/33/9 37/34/9 9/35/9 11/36/9 43/37/9 13/38/9 15/39/9 34/40/9
f 34/40/10 35/41/10 17/42/10 1/29/10
f 13/38/11 23/43/11 24/44/11 15/39/11
f 43/37/12 44/45/12 23/43/12 13/38/12
f 9/35/13 21/46/13 22/47/13 11/36/13
f 37/34/14 38/48/14 21/46/14 9/35/14
f 5/32/15 19/49/15 20/50/15 7/33/15
f 40/31/16 41/51/16 19/49/16 5/32/16
f 1/29/17 17/42/17 18/52/17 3/30/17
f 25/53/18 16/24/18 14/23/18
f 25/53/19 12/14/19 10/13/19
f 6/27/20 4/26/20 25/19/20
f 2/10/21 16/9/21 25/19/21
f 6/6/22 25/53/22 8/7/22
f 8/16/23 25/19/23 10/17/23
f 4/3/24 2/2/24 25/53/24
f 35/41/25 36/54/25 26/1/25 17/42/25
f 23/43/26 32/22/26 33/25/26 24/44/26
f 44/45/27 45/55/27 32/22/27 23/43/27
f 21/46/28 30/12/28 31/15/28 22/47/28
f 38/48/29 39/56/29 30/12/29 21/46/29
f 19/49/30 28/5/30 29/8/30 20/50/30
f 41/51/31 42/57/31 28/5/31 19/49/31
f 17/42/32 26/1/32 27/4/32 18/52/32
f 24/44/25 33/25/25 36/54/25 35/41/25
f 15/39/10 24/44/10 35/41/10 34/40/10
f 20/50/29 29/8/29 39/56/29 38/48/29
f 7/33/14 20/50/14 38/48/14 37/34/14
f 18/52/31 27/4/31 42/57/31 41/51/31
f 3/30/16 18/52/16 41/51/16 40/31/16
f 22/47/27 31/15/27 45/55/27 44/45/27
f 11/36/12 22/47/12 44/45/12 43/37/12
f 33/25/3 16/24/3 36/54/3
f 26/1/3 36/54/3 2/2/3
f 27/4/8 4/3/8 42/57/8
f 28/5/8 42/57/8 6/6/8
f 29/8/5 8/7/5 39/56/5
f 30/12/5 39/56/5 10/13/5
f 31/15/33 12/14/33 45/55/33
f 32/22/33 45/55/33 14/23/33
f 12/21/33 14/20/33 45/58/33
