# Blender v2.83.3 OBJ File: 'Main21.blend'
# www.blender.org
o Log_03_Cube.018
v -0.108157 0.000127 0.125574
v -0.168355 0.000127 0.000000
v 0.157465 0.000127 0.000000
v -0.000174 0.000127 -0.187059
v -0.000174 0.000127 0.187059
v 0.107273 0.000127 0.125878
v 0.107273 0.000127 -0.125878
v -0.108157 0.000127 -0.125574
v -0.105177 0.758125 -0.105004
v -0.000130 0.758125 -0.155785
v 0.158265 0.758125 0.000000
v -0.160350 0.758125 0.000000
v -0.105177 0.758125 0.105004
v -0.000130 0.758125 0.155785
v 0.104806 0.758125 0.105057
v 0.104806 0.758125 -0.105057
v 0.120367 0.758125 0.116502
v 0.179649 0.758125 0.000000
v -0.120627 0.758125 0.116502
v -0.181842 0.758125 0.000000
v -0.143737 0.000127 0.137292
v -0.222716 0.000127 0.000000
v 0.211295 0.000127 0.000000
v 0.145603 0.000127 0.137292
v 0.000933 0.000127 -0.205938
v 0.145603 0.000127 -0.137292
v -0.143737 0.000127 -0.137292
v 0.000933 0.000127 0.205938
v -0.000130 0.758125 0.174752
v 0.120367 0.758125 -0.116502
v -0.000130 0.758125 -0.174752
v -0.120627 0.758125 -0.116502
vt 0.140563 0.611474
vt 0.176233 0.611474
vt 0.176233 0.749292
vt 0.140563 0.749292
vt 0.171311 0.734513
vt 0.171311 0.734513
vt 0.171311 0.872331
vt 0.171311 0.872331
vt 0.099971 0.734513
vt 0.099971 0.734513
vt 0.099971 0.872331
vt 0.099971 0.872331
vt 0.176233 0.594165
vt 0.176233 0.514047
vt 0.176233 0.514047
vt 0.176233 0.594165
vt 0.135641 0.734513
vt 0.135641 0.872331
vt 0.104893 0.611474
vt 0.104893 0.611474
vt 0.104893 0.749292
vt 0.104893 0.749292
vt 0.140563 0.611474
vt 0.104893 0.611474
vt 0.104893 0.749292
vt 0.140563 0.749292
vt 0.104893 0.514047
vt 0.140563 0.514047
vt 0.140563 0.594165
vt 0.104893 0.594165
vt 0.190174 0.038582
vt 0.206306 0.076626
vt 0.190174 0.114669
vt 0.158507 0.133039
vt 0.126808 0.114650
vt 0.110158 0.076626
vt 0.126808 0.038602
vt 0.158507 0.020213
vt 0.119725 0.031153
vt 0.097926 0.076626
vt 0.119725 0.122099
vt 0.158828 0.144364
vt 0.197737 0.122209
vt 0.215913 0.076626
vt 0.197737 0.031043
vt 0.158828 0.008888
vt 0.102828 0.734513
vt 0.105589 0.734513
vt 0.099971 0.734513
vt 0.165686 0.734513
vt 0.168504 0.734513
vt 0.171311 0.734513
vt 0.169116 0.872331
vt 0.166587 0.872331
vt 0.171311 0.872331
vt 0.104655 0.872331
vt 0.102405 0.872331
vt 0.099971 0.872331
vt 0.104655 0.872331
vt 0.135618 0.872331
vt 0.166587 0.872331
vt 0.135618 0.872331
vt 0.135641 0.872331
vt 0.135636 0.734513
vt 0.135641 0.734513
vt 0.105589 0.734513
vt 0.135636 0.734513
vt 0.165686 0.734513
vn -0.4314 0.0372 0.9014
vn -0.8745 0.0435 -0.4831
vn 0.8964 0.0397 -0.4414
vn -0.8745 0.0435 0.4831
vn -0.4314 0.0372 -0.9014
vn 0.8964 0.0397 0.4414
vn 0.4314 0.0384 -0.9014
vn 0.4314 0.0384 0.9014
vn 0.0000 1.0000 -0.0000
vn 0.0000 -1.0000 0.0000
s off
f 29/1/1 19/2/1 21/3/1 28/4/1
f 20/5/2 32/6/2 27/7/2 22/8/2
f 30/9/3 18/10/3 23/11/3 26/12/3
f 21/13/4 19/14/4 20/15/4 22/16/4
f 32/6/5 31/17/5 25/18/5 27/7/5
f 18/19/6 17/20/6 24/21/6 23/22/6
f 31/23/7 30/24/7 26/25/7 25/26/7
f 17/27/8 29/28/8 28/29/8 24/30/8
f 15/31/9 11/32/9 16/33/9 10/34/9 9/35/9 12/36/9 13/37/9 14/38/9
f 1/39/10 2/40/10 8/41/10 4/42/10 7/43/10 3/44/10 6/45/10 5/46/10
f 11/47/9 15/48/9 17/49/9 18/10/9
f 13/50/9 12/51/9 20/5/9 19/52/9
f 2/53/10 1/54/10 21/55/10 22/8/10
f 6/56/10 3/57/10 23/11/10 24/58/10
f 7/59/10 4/60/10 25/18/10 26/12/10
f 4/60/10 8/61/10 27/7/10 25/18/10
f 5/62/10 6/56/10 24/58/10 28/63/10
f 8/61/10 2/53/10 22/8/10 27/7/10
f 14/64/9 13/50/9 19/52/9 29/65/9
f 3/57/10 7/59/10 26/12/10 23/11/10
f 1/54/10 5/62/10 28/63/10 21/55/10
f 16/66/9 11/47/9 18/10/9 30/9/9
f 10/67/9 16/66/9 30/9/9 31/17/9
f 12/51/9 9/68/9 32/6/9 20/5/9
f 9/68/9 10/67/9 31/17/9 32/6/9
f 15/48/9 14/64/9 29/65/9 17/49/9
