# Blender v2.83.3 OBJ File: 'Main26.blend'
# www.blender.org
o Pan_01_Cylinder.028
v -0.325209 0.048891 -0.090958
v -0.373541 0.049109 -0.088801
v -0.325209 0.031238 0.065907
v -0.325209 0.048891 0.065907
v -0.325209 0.031238 -0.090958
v -0.363399 0.031021 0.067149
v -0.373541 0.031021 -0.088801
v -0.363399 0.049109 0.067149
v -0.363400 0.049109 -0.066683
v -0.363400 0.031021 -0.066683
v -0.373540 0.031021 0.089267
v -0.325209 0.031238 0.091424
v -0.373540 0.049109 0.089267
v -0.325209 0.048891 0.091424
v -0.325209 0.048891 -0.065441
v -0.325209 0.031238 -0.065441
v -0.433188 0.049109 0.000233
v -0.433188 0.031021 0.000233
v -0.415390 0.049109 0.000233
v -0.415390 0.031021 0.000233
v -0.414794 0.049109 -0.058940
v -0.414794 0.031021 -0.058940
v -0.400853 0.031021 -0.045780
v -0.400853 0.049109 -0.045780
v -0.400853 0.031021 0.046246
v -0.400853 0.049109 0.046246
v -0.414793 0.031021 0.059406
v -0.414793 0.049109 0.059406
v 0.326811 0.048891 -0.090958
v 0.375144 0.049109 -0.088801
v 0.326811 0.031238 0.065907
v 0.326811 0.048891 0.065907
v 0.326811 0.031238 -0.090958
v 0.365002 0.031021 0.067149
v 0.375144 0.031021 -0.088801
v 0.365002 0.049109 0.067149
v 0.365002 0.049109 -0.066683
v 0.365002 0.031021 -0.066683
v 0.375143 0.031021 0.089267
v 0.326811 0.031238 0.091424
v 0.375143 0.049109 0.089267
v 0.326811 0.048891 0.091424
v 0.326811 0.048891 -0.065441
v 0.326811 0.031238 -0.065441
v 0.434791 0.049109 0.000233
v 0.434791 0.031021 0.000233
v 0.416993 0.049109 0.000233
v 0.416993 0.031021 0.000233
v 0.416396 0.049109 -0.058940
v 0.416396 0.031021 -0.058940
v 0.402456 0.031021 -0.045780
v 0.402456 0.049109 -0.045780
v 0.402455 0.031021 0.046246
v 0.402455 0.049109 0.046246
v 0.416396 0.031021 0.059406
v 0.416396 0.049109 0.059406
v 0.248188 0.054540 -0.248197
v 0.339034 0.054540 -0.090848
v 0.339034 0.054540 0.090843
v 0.248188 0.054540 0.248192
v 0.090839 0.054540 0.339037
v -0.090852 0.054540 0.339037
v -0.248201 0.054540 0.248192
v -0.339046 0.054540 0.090843
v -0.339046 0.054540 -0.090848
v -0.248201 0.054540 -0.248197
v -0.090852 0.054540 -0.339043
v 0.090839 0.054540 -0.339043
v 0.261194 0.000000 -0.069991
v 0.191205 0.000000 -0.191214
v 0.261194 0.000000 0.069986
v 0.191205 0.000000 0.191209
v 0.069982 0.000000 0.261197
v -0.069995 0.000000 0.261197
v -0.191218 0.000000 0.191209
v -0.261206 0.000000 0.069986
v -0.261206 0.000000 -0.069991
v -0.191218 0.000000 -0.191214
v -0.069995 0.000000 -0.261203
v 0.069982 0.000000 -0.261203
v 0.260612 0.002390 -0.069835
v 0.190780 0.002390 -0.190789
v 0.260612 0.002390 0.069830
v 0.190780 0.002390 0.190783
v 0.069826 0.002390 0.260616
v -0.069839 0.002390 0.260616
v -0.190792 0.002390 0.190783
v -0.260625 0.002390 0.069830
v -0.260625 0.002390 -0.069835
v -0.190792 0.002390 -0.190789
v -0.069839 0.002390 -0.260621
v 0.069826 0.002390 -0.260621
v 0.324999 0.056369 -0.087088
v 0.237914 0.056369 -0.237923
v 0.324999 0.056369 0.087082
v 0.237914 0.056369 0.237918
v 0.087079 0.056369 0.325002
v -0.087091 0.056369 0.325002
v -0.237926 0.056369 0.237918
v -0.325011 0.056369 0.087082
v -0.325011 0.056369 -0.087088
v -0.237927 0.056369 -0.237923
v -0.087091 0.056369 -0.325008
v 0.087078 0.056369 -0.325008
v 0.250344 0.026460 -0.250353
v 0.341979 0.026460 -0.091637
v 0.341979 0.026460 0.091632
v 0.250344 0.026460 0.250348
v 0.091628 0.026460 0.341982
v -0.091641 0.026460 0.341982
v -0.250357 0.026460 0.250348
v -0.341991 0.026460 0.091632
v -0.341991 0.026460 -0.091637
v -0.250357 0.026460 -0.250353
v -0.091641 0.026460 -0.341988
v 0.091628 0.026460 -0.341988
vt 0.221548 0.921384
vt 0.221548 0.921384
vt 0.147083 0.921379
vt 0.147083 0.921379
vt 0.239312 0.885485
vt 0.243479 0.877064
vt 0.243479 0.877064
vt 0.239312 0.885485
vt 0.241291 0.881485
vt 0.241291 0.881485
vt 0.202276 0.650371
vt 0.150192 0.653733
vt 0.150192 0.653733
vt 0.202276 0.650371
vt 0.221548 0.921384
vt 0.221548 0.921384
vt 0.142645 0.669024
vt 0.164448 0.623970
vt 0.164448 0.623970
vt 0.142645 0.669024
vt 0.163779 0.679612
vt 0.145366 0.669793
vt 0.164448 0.623970
vt 0.179587 0.639113
vt 0.252737 0.618359
vt 0.253243 0.639117
vt 0.253243 0.639117
vt 0.179587 0.639113
vt 0.252737 0.618358
vt 0.202276 0.650371
vt 0.202276 0.650371
vt 0.150192 0.653733
vt 0.150192 0.653733
vt 0.162017 0.674622
vt 0.179587 0.639113
vt 0.253243 0.639117
vt 0.252737 0.618359
vt 0.145366 0.669793
vt 0.164448 0.623970
vt 0.139570 0.675380
vt 0.139570 0.675380
vt 0.147083 0.921379
vt 0.147083 0.921379
vt 0.253243 0.639117
vt 0.252737 0.618359
vt 0.179587 0.639113
vt 0.162017 0.674622
vt 0.157895 0.682951
vt 0.163779 0.679612
vt 0.157895 0.682951
vt 0.221548 0.921384
vt 0.147083 0.921379
vt 0.147083 0.921379
vt 0.221548 0.921384
vt 0.239312 0.885485
vt 0.239312 0.885485
vt 0.243479 0.877064
vt 0.243479 0.877064
vt 0.241291 0.881485
vt 0.241291 0.881485
vt 0.202276 0.650371
vt 0.202276 0.650371
vt 0.150192 0.653733
vt 0.150192 0.653733
vt 0.221548 0.921384
vt 0.221548 0.921384
vt 0.142645 0.669024
vt 0.142645 0.669024
vt 0.164448 0.623970
vt 0.164448 0.623970
vt 0.163779 0.679612
vt 0.179587 0.639113
vt 0.164448 0.623970
vt 0.145366 0.669793
vt 0.253243 0.639117
vt 0.252737 0.618359
vt 0.253243 0.639117
vt 0.252737 0.618358
vt 0.179587 0.639113
vt 0.202276 0.650371
vt 0.150192 0.653733
vt 0.150192 0.653733
vt 0.202276 0.650371
vt 0.162017 0.674622
vt 0.179587 0.639113
vt 0.252737 0.618359
vt 0.253243 0.639117
vt 0.164448 0.623970
vt 0.145366 0.669793
vt 0.139570 0.675380
vt 0.139570 0.675380
vt 0.147083 0.921379
vt 0.147083 0.921379
vt 0.253243 0.639117
vt 0.179587 0.639113
vt 0.252737 0.618359
vt 0.162017 0.674622
vt 0.157895 0.682951
vt 0.163779 0.679612
vt 0.157895 0.682951
vt 0.196614 0.875731
vt 0.219190 0.875731
vt 0.227453 0.875731
vt 0.219190 0.875731
vt 0.196614 0.875731
vt 0.165778 0.875731
vt 0.134945 0.875731
vt 0.112369 0.875731
vt 0.104106 0.875731
vt 0.112369 0.875731
vt 0.134945 0.875731
vt 0.165778 0.875731
vt 0.145923 0.782206
vt 0.145923 0.827667
vt 0.184412 0.827667
vt 0.180585 0.782206
vt 0.212586 0.827667
vt 0.205960 0.782206
vt 0.222898 0.827667
vt 0.215248 0.782206
vt 0.212586 0.827667
vt 0.205960 0.782206
vt 0.184412 0.827667
vt 0.180585 0.782206
vt 0.145923 0.827667
vt 0.145922 0.782206
vt 0.107437 0.827667
vt 0.111263 0.782206
vt 0.085889 0.782206
vt 0.079263 0.827667
vt 0.068950 0.827667
vt 0.076601 0.782206
vt 0.079263 0.827667
vt 0.085889 0.782206
vt 0.107437 0.827667
vt 0.111263 0.782206
vt 0.209783 0.887376
vt 0.170094 0.898011
vt 0.130405 0.887376
vt 0.101350 0.858322
vt 0.090715 0.818632
vt 0.101350 0.778943
vt 0.130405 0.749889
vt 0.170094 0.739254
vt 0.209783 0.749889
vt 0.238838 0.778943
vt 0.249472 0.818632
vt 0.238838 0.858322
vt 0.165870 0.744955
vt 0.209236 0.744955
vt 0.219950 0.826411
vt 0.165870 0.826411
vt 0.240982 0.744955
vt 0.259538 0.826411
vt 0.252600 0.744955
vt 0.274029 0.826411
vt 0.240982 0.744955
vt 0.259538 0.826411
vt 0.209236 0.744955
vt 0.219950 0.826411
vt 0.165870 0.744955
vt 0.165870 0.826411
vt 0.122505 0.744955
vt 0.111791 0.826411
vt 0.090758 0.744955
vt 0.072203 0.826411
vt 0.079141 0.744955
vt 0.057711 0.826411
vt 0.090758 0.744955
vt 0.072203 0.826411
vt 0.122505 0.744955
vt 0.111791 0.826411
vt 0.107830 0.487068
vt 0.113682 0.487068
vt 0.113798 0.487896
vt 0.107964 0.487896
vt 0.151507 0.487068
vt 0.173344 0.487068
vt 0.173278 0.487896
vt 0.151507 0.487896
vt 0.195183 0.487068
vt 0.189331 0.487068
vt 0.189215 0.487896
vt 0.195049 0.487896
vt 0.113682 0.487068
vt 0.113798 0.487896
vt 0.129668 0.487068
vt 0.129735 0.487896
vt 0.189331 0.487068
vt 0.189215 0.487896
vt 0.129668 0.487068
vt 0.129735 0.487896
vt 0.173344 0.487068
vt 0.151507 0.487068
vt 0.151507 0.487896
vt 0.173278 0.487896
vt 0.115089 0.736746
vt 0.145923 0.736746
vt 0.092514 0.736746
vt 0.084252 0.736746
vt 0.092514 0.736746
vt 0.115089 0.736746
vt 0.145923 0.736746
vt 0.176759 0.736746
vt 0.199335 0.736746
vt 0.207598 0.736746
vt 0.199335 0.736746
vt 0.176759 0.736746
vn -0.0325 0.0000 -0.9995
vn 0.9535 0.0000 0.3013
vn 0.4873 0.0000 -0.8732
vn -0.0446 0.0000 0.9990
vn 0.4873 0.0000 0.8732
vn -0.5864 0.0000 0.8101
vn 0.0000 -1.0000 0.0000
vn 0.0050 -1.0000 -0.0011
vn 0.0050 1.0000 0.0011
vn -0.0446 0.0000 -0.9990
vn 0.0050 -1.0000 0.0011
vn -0.5864 0.0000 -0.8101
vn -0.9549 0.0000 -0.2969
vn -0.0325 0.0000 0.9995
vn 0.0050 1.0000 -0.0011
vn 0.0000 1.0000 -0.0000
vn -0.9549 0.0000 0.2969
vn 0.9535 0.0000 -0.3013
vn 0.0325 0.0000 -0.9995
vn -0.9535 0.0000 0.3013
vn -0.4873 0.0000 -0.8732
vn 0.0446 0.0000 0.9990
vn -0.4873 0.0000 0.8732
vn 0.5864 0.0000 0.8101
vn -0.0050 -1.0000 -0.0011
vn -0.0050 1.0000 0.0011
vn 0.0446 0.0000 -0.9990
vn -0.0050 -1.0000 0.0011
vn 0.5864 0.0000 -0.8101
vn 0.9549 0.0000 -0.2969
vn 0.0325 0.0000 0.9995
vn -0.0050 1.0000 -0.0011
vn 0.9549 0.0000 0.2969
vn -0.9535 0.0000 -0.3013
vn 0.8613 0.1043 -0.4973
vn 0.9945 0.1043 0.0000
vn 0.8613 0.1043 0.4973
vn 0.4973 0.1043 0.8613
vn 0.0000 0.1043 0.9945
vn -0.4973 0.1043 0.8613
vn -0.8613 0.1043 0.4973
vn -0.8613 0.1043 -0.4973
vn -0.4973 0.1043 -0.8613
vn -0.0000 0.1043 -0.9945
vn 0.4973 0.1043 -0.8613
vn -0.5564 0.7663 0.3212
vn -0.6425 0.7663 0.0000
vn -0.5564 0.7663 -0.3212
vn -0.3212 0.7663 -0.5564
vn 0.0000 0.7663 -0.6425
vn 0.3212 0.7663 -0.5564
vn 0.5564 0.7663 -0.3212
vn 0.6425 0.7663 -0.0000
vn 0.5564 0.7663 0.3212
vn 0.3212 0.7663 0.5564
vn 0.0000 0.7663 0.6425
vn -0.3212 0.7663 0.5564
vn -0.1119 0.9916 -0.0646
vn -0.0646 0.9916 0.1119
vn 0.1119 0.9916 0.0646
vn -0.0646 0.9916 -0.1119
vn -0.1119 0.9916 0.0646
vn 0.0646 0.9916 0.1119
vn -0.0000 0.9916 -0.1293
vn 0.1119 0.9916 -0.0646
vn -0.1293 0.9916 0.0000
vn 0.0000 0.9916 0.1293
vn 0.0646 0.9916 -0.1119
vn 0.1293 0.9916 0.0000
vn 0.1556 -0.9503 -0.2696
vn -0.0000 -0.9503 -0.3113
vn -0.1556 -0.9503 -0.2696
vn -0.2696 -0.9503 -0.1556
vn -0.3113 -0.9503 0.0000
vn -0.2696 -0.9503 0.1556
vn -0.1556 -0.9503 0.2696
vn 0.0000 -0.9503 0.3113
vn 0.1556 -0.9503 0.2696
vn 0.2696 -0.9503 0.1556
vn 0.3113 -0.9503 0.0000
vn 0.2696 -0.9503 -0.1556
vn -0.9945 0.1043 0.0000
s off
f 6/1/1 8/2/1 4/3/1 3/4/1
f 24/5/2 19/6/2 20/7/2 23/8/2
f 25/9/3 26/10/3 8/2/3 6/1/3
f 11/11/4 12/12/4 14/13/4 13/14/4
f 23/8/5 10/15/5 9/16/5 24/5/5
f 27/17/6 11/18/6 13/19/6 28/20/6
f 23/21/7 22/22/7 7/23/7 10/24/7
f 10/24/8 7/23/8 5/25/8 16/26/8
f 4/27/9 8/28/9 13/19/9 14/29/9
f 7/30/10 2/31/10 1/32/10 5/33/10
f 25/34/7 6/35/7 11/18/7 27/17/7
f 6/35/11 3/36/11 12/37/11 11/18/11
f 22/22/12 21/38/12 2/39/12 7/23/12
f 22/22/13 18/40/13 17/41/13 21/38/13
f 10/15/14 16/42/14 15/43/14 9/16/14
f 15/44/15 1/45/15 2/39/15 9/46/15
f 26/47/16 19/48/16 17/41/16 28/20/16
f 19/48/16 24/49/16 21/38/16 17/41/16
f 9/46/16 2/39/16 21/38/16 24/49/16
f 8/28/16 26/47/16 28/20/16 13/19/16
f 23/21/7 20/50/7 18/40/7 22/22/7
f 20/50/7 25/34/7 27/17/7 18/40/7
f 18/40/17 27/17/17 28/20/17 17/41/17
f 19/6/18 26/10/18 25/9/18 20/7/18
f 34/51/19 31/52/19 32/53/19 36/54/19
f 52/55/20 51/56/20 48/57/20 47/58/20
f 53/59/21 34/51/21 36/54/21 54/60/21
f 39/61/22 41/62/22 42/63/22 40/64/22
f 51/56/23 52/55/23 37/65/23 38/66/23
f 55/67/24 56/68/24 41/69/24 39/70/24
f 51/71/7 38/72/7 35/73/7 50/74/7
f 38/72/25 44/75/25 33/76/25 35/73/25
f 32/77/26 42/78/26 41/69/26 36/79/26
f 35/80/27 33/81/27 29/82/27 30/83/27
f 53/84/7 55/67/7 39/70/7 34/85/7
f 34/85/28 39/70/28 40/86/28 31/87/28
f 50/74/29 35/73/29 30/88/29 49/89/29
f 50/74/30 49/89/30 45/90/30 46/91/30
f 38/66/31 37/65/31 43/92/31 44/93/31
f 43/94/32 37/95/32 30/88/32 29/96/32
f 54/97/16 56/68/16 45/90/16 47/98/16
f 47/98/16 45/90/16 49/89/16 52/99/16
f 37/95/16 52/99/16 49/89/16 30/88/16
f 36/79/16 41/69/16 56/68/16 54/97/16
f 51/71/7 50/74/7 46/91/7 48/100/7
f 48/100/7 46/91/7 55/67/7 53/84/7
f 46/91/33 45/90/33 56/68/33 55/67/33
f 47/58/34 48/57/34 53/59/34 54/60/34
f 69/101/7 71/102/7 72/103/7 73/104/7 74/105/7 75/106/7 76/107/7 77/108/7 78/109/7 79/110/7 80/111/7 70/112/7
f 105/113/35 57/114/35 58/115/35 106/116/35
f 106/116/36 58/115/36 59/117/36 107/118/36
f 107/118/37 59/117/37 60/119/37 108/120/37
f 108/120/38 60/119/38 61/121/38 109/122/38
f 109/122/39 61/121/39 62/123/39 110/124/39
f 110/124/40 62/123/40 63/125/40 111/126/40
f 111/126/41 63/125/41 64/127/41 112/128/41
f 113/129/42 65/130/42 66/131/42 114/132/42
f 114/132/43 66/131/43 67/133/43 115/134/43
f 115/134/44 67/133/44 68/135/44 116/136/44
f 116/136/45 68/135/45 57/114/45 105/113/45
f 81/137/16 82/138/16 92/139/16 91/140/16 90/141/16 89/142/16 88/143/16 87/144/16 86/145/16 85/146/16 84/147/16 83/148/16
f 82/149/46 81/150/46 93/151/46 94/152/46
f 81/150/47 83/153/47 95/154/47 93/151/47
f 83/153/48 84/155/48 96/156/48 95/154/48
f 84/155/49 85/157/49 97/158/49 96/156/49
f 85/157/50 86/159/50 98/160/50 97/158/50
f 86/159/51 87/161/51 99/162/51 98/160/51
f 87/161/52 88/163/52 100/164/52 99/162/52
f 88/163/53 89/165/53 101/166/53 100/164/53
f 89/165/54 90/167/54 102/168/54 101/166/54
f 90/167/55 91/169/55 103/170/55 102/168/55
f 91/169/56 92/171/56 104/172/56 103/170/56
f 92/171/57 82/149/57 94/152/57 104/172/57
f 66/173/58 65/174/58 101/175/58 102/176/58
f 63/177/59 62/178/59 98/179/59 99/180/59
f 60/181/60 59/182/60 95/183/60 96/184/60
f 67/185/61 66/173/61 102/176/61 103/186/61
f 64/187/62 63/177/62 99/180/62 100/188/62
f 61/189/63 60/181/63 96/184/63 97/190/63
f 68/191/64 67/185/64 103/186/64 104/192/64
f 58/193/65 57/194/65 94/195/65 93/196/65
f 65/174/66 64/187/66 100/188/66 101/175/66
f 62/178/67 61/189/67 97/190/67 98/179/67
f 57/194/68 68/191/68 104/192/68 94/195/68
f 59/182/69 58/193/69 93/196/69 95/183/69
f 80/197/70 116/136/70 105/113/70 70/198/70
f 79/199/71 115/134/71 116/136/71 80/197/71
f 78/200/72 114/132/72 115/134/72 79/199/72
f 77/201/73 113/129/73 114/132/73 78/200/73
f 76/202/74 112/128/74 113/129/74 77/201/74
f 75/203/75 111/126/75 112/128/75 76/202/75
f 74/204/76 110/124/76 111/126/76 75/203/76
f 73/205/77 109/122/77 110/124/77 74/204/77
f 72/206/78 108/120/78 109/122/78 73/205/78
f 71/207/79 107/118/79 108/120/79 72/206/79
f 69/208/80 106/116/80 107/118/80 71/207/80
f 70/198/81 105/113/81 106/116/81 69/208/81
f 65/130/82 113/129/82 112/128/82 64/127/82
