# Blender v2.83.3 OBJ File: 'Main16.blend'
# www.blender.org
o Stool_01_Cube.138
v -0.261000 0.000000 0.197999
v -0.201000 0.000000 0.197999
v -0.261000 0.000000 0.258000
v -0.201000 0.000000 0.258000
v -0.201000 0.470000 0.197999
v -0.201000 0.470000 0.258000
v -0.261000 0.470000 0.258000
v -0.261000 0.470000 0.197999
v 0.258000 0.470000 -0.262001
v 0.258000 0.470000 -0.202000
v 0.198000 0.470000 -0.202000
v 0.198000 0.470000 -0.262001
v 0.258000 0.000000 0.197999
v 0.198000 0.000000 0.197999
v 0.258000 0.000000 0.258000
v 0.198000 0.000000 0.258000
v 0.198000 0.470000 0.197999
v 0.198000 0.470000 0.258000
v 0.258000 0.470000 0.258000
v 0.258000 0.470000 0.197999
v 0.198000 0.000000 -0.202000
v 0.258000 0.000000 -0.202000
v 0.198000 0.000000 -0.262001
v 0.258000 0.000000 -0.262001
v -0.261000 0.470000 -0.262001
v -0.261000 0.470000 -0.202000
v -0.201000 0.470000 -0.202000
v -0.201000 0.470000 -0.262001
v -0.201000 0.000000 -0.202000
v -0.261000 0.000000 -0.202000
v -0.201000 0.000000 -0.262001
v -0.261000 0.000000 -0.262001
v 0.255001 0.430000 0.250000
v -0.254999 0.430000 0.250000
v 0.255001 0.450000 0.250000
v -0.254999 0.450000 0.250000
v 0.255001 0.430000 -0.250000
v -0.254999 0.430000 -0.250000
v 0.255001 0.450000 -0.250000
v -0.254999 0.450000 -0.250000
v -0.210000 0.360000 -0.235001
v -0.210000 0.360000 -0.215000
v -0.210000 0.430000 -0.235001
v -0.210000 0.430000 -0.215000
v 0.209000 0.360000 -0.235001
v 0.209000 0.360000 -0.215000
v 0.209000 0.430000 -0.235001
v 0.209000 0.430000 -0.215000
v -0.200000 0.360000 0.210000
v -0.200000 0.360000 0.230000
v -0.200000 0.430000 0.210000
v -0.200000 0.430000 0.230000
v 0.199000 0.360000 0.210000
v 0.199000 0.360000 0.230000
v 0.199000 0.430000 0.210000
v 0.199000 0.430000 0.230000
v 0.215051 0.360000 0.205217
v 0.235047 0.360000 0.204868
v 0.215051 0.430000 0.205217
v 0.235047 0.430000 0.204868
v 0.216337 0.360000 -0.214869
v 0.236333 0.360000 -0.215218
v 0.216337 0.430000 -0.214869
v 0.236333 0.430000 -0.215218
v -0.235047 0.360000 0.204868
v -0.215049 0.360000 0.205217
v -0.235047 0.430000 0.204868
v -0.215049 0.430000 0.205217
v -0.236333 0.360000 -0.215218
v -0.216335 0.360000 -0.214869
v -0.236333 0.430000 -0.215218
v -0.216335 0.430000 -0.214869
vt 0.203084 0.963364
vt 0.203084 0.963364
vt 0.229747 0.963364
vt 0.229747 0.963364
vt 0.222262 0.937852
vt 0.222262 0.651238
vt 0.195599 0.651238
vt 0.195600 0.937852
vt 0.195599 0.651238
vt 0.195600 0.937852
vt 0.222262 0.651238
vt 0.222262 0.937852
vt 0.179974 0.457956
vt 0.206637 0.457956
vt 0.206637 0.457956
vt 0.179974 0.457956
vt 0.111741 0.457956
vt 0.138403 0.457956
vt 0.138403 0.457956
vt 0.111741 0.457956
vt 0.154028 0.937852
vt 0.154028 0.937852
vt 0.154028 0.651238
vt 0.154028 0.651238
vt 0.161513 0.963364
vt 0.134851 0.963364
vt 0.134851 0.963364
vt 0.161513 0.963364
vt 0.127366 0.937852
vt 0.154028 0.937852
vt 0.154028 0.651238
vt 0.127366 0.651238
vt 0.154028 0.937852
vt 0.154028 0.651238
vt 0.127366 0.937852
vt 0.127366 0.651238
vt 0.161513 0.963364
vt 0.134851 0.963364
vt 0.134851 0.963364
vt 0.161513 0.963364
vt 0.195600 0.937852
vt 0.195599 0.651238
vt 0.195599 0.651238
vt 0.195600 0.937852
vt 0.203084 0.963364
vt 0.203084 0.963364
vt 0.229747 0.963364
vt 0.229747 0.963364
vt 0.127366 0.937852
vt 0.127366 0.651238
vt 0.127366 0.937852
vt 0.127366 0.651238
vt 0.222262 0.937852
vt 0.222262 0.651238
vt 0.222262 0.651238
vt 0.222262 0.937852
vt 0.179974 0.457956
vt 0.206637 0.457956
vt 0.206637 0.457956
vt 0.179974 0.457956
vt 0.111741 0.457956
vt 0.138403 0.457956
vt 0.138403 0.457956
vt 0.111741 0.457956
vt 0.167220 0.312972
vt 0.167220 0.312972
vt 0.167220 0.316514
vt 0.167220 0.316514
vt 0.188837 0.837977
vt 0.188837 0.786270
vt 0.136096 0.786270
vt 0.136096 0.837977
vt 0.181769 0.272062
vt 0.181769 0.205684
vt 0.249475 0.205684
vt 0.249475 0.272062
vt 0.257562 0.316514
vt 0.257562 0.316514
vt 0.257562 0.312972
vt 0.257562 0.312972
vt 0.221596 0.655245
vt 0.221596 0.670830
vt 0.128088 0.670830
vt 0.128088 0.655245
vt 0.250060 0.681484
vt 0.250060 0.681484
vt 0.156551 0.681484
vt 0.156551 0.681484
vt 0.243504 0.454108
vt 0.243504 0.438523
vt 0.149995 0.438523
vt 0.149995 0.454108
vt 0.243504 0.438523
vt 0.243504 0.454108
vt 0.149995 0.454108
vt 0.149995 0.438523
vt 0.250060 0.681484
vt 0.250060 0.681484
vt 0.156551 0.681484
vt 0.156551 0.681484
vt 0.221596 0.670830
vt 0.221596 0.655245
vt 0.128088 0.655245
vt 0.128088 0.670830
vt 0.250183 0.438523
vt 0.250183 0.454108
vt 0.250183 0.454108
vt 0.250183 0.438523
vt 0.252286 0.681484
vt 0.256739 0.681484
vt 0.256739 0.681484
vt 0.252286 0.681484
vt 0.223822 0.670830
vt 0.223822 0.655245
vt 0.223822 0.655245
vt 0.223822 0.670830
vt 0.125861 0.655245
vt 0.125861 0.670830
vt 0.125861 0.670830
vt 0.125861 0.655245
vt 0.149872 0.681484
vt 0.154325 0.681484
vt 0.154325 0.681484
vt 0.149872 0.681484
vt 0.143316 0.454108
vt 0.143316 0.438523
vt 0.143316 0.438523
vt 0.143316 0.454108
vt 0.102055 0.484194
vt 0.110359 0.484194
vt 0.110359 0.484610
vt 0.102055 0.484610
vt 0.111110 0.484717
vt 0.111136 0.493460
vt 0.110720 0.493453
vt 0.110694 0.484709
vt 0.101741 0.484709
vt 0.101715 0.493453
vt 0.101299 0.493460
vt 0.101325 0.484717
vt 0.101847 0.493456
vt 0.110568 0.493456
vt 0.110568 0.493872
vt 0.101847 0.493872
vn 0.0000 -1.0000 0.0000
vn 0.0000 0.0000 -1.0000
vn 1.0000 0.0000 0.0000
vn 0.0000 0.0000 1.0000
vn 0.0000 1.0000 0.0000
vn -1.0000 0.0000 0.0000
vn 1.0000 0.0000 0.0031
vn -1.0000 0.0000 -0.0031
vn 1.0000 0.0000 -0.0031
vn -1.0000 0.0000 0.0031
s off
f 2/1/1 4/2/1 3/3/1 1/4/1
f 1/5/2 8/6/2 5/7/2 2/8/2
f 2/8/3 5/7/3 6/9/3 4/10/3
f 4/10/4 6/9/4 7/11/4 3/12/4
f 28/13/5 25/14/5 26/15/5 27/16/5
f 9/17/5 12/18/5 11/19/5 10/20/5
f 3/12/6 7/11/6 8/6/6 1/5/6
f 23/21/6 21/22/6 11/23/6 12/24/6
f 14/25/1 13/26/1 15/27/1 16/28/1
f 13/29/2 14/30/2 17/31/2 20/32/2
f 14/30/6 16/33/6 18/34/6 17/31/6
f 16/33/4 15/35/4 19/36/4 18/34/4
f 23/37/1 24/38/1 22/39/1 21/40/1
f 31/41/3 28/42/3 27/43/3 29/44/3
f 31/45/1 29/46/1 30/47/1 32/48/1
f 24/49/2 23/21/2 12/24/2 9/50/2
f 21/22/4 22/51/4 10/52/4 11/23/4
f 30/53/6 26/54/6 25/55/6 32/56/6
f 32/56/2 25/55/2 28/42/2 31/41/2
f 29/44/4 27/43/4 26/54/4 30/53/4
f 22/51/3 24/49/3 9/50/3 10/52/3
f 15/35/3 13/29/3 20/32/3 19/36/3
f 5/57/5 8/58/5 7/59/5 6/60/5
f 20/61/5 17/62/5 18/63/5 19/64/5
f 38/65/6 34/66/6 36/67/6 40/68/6
f 37/69/1 33/70/1 34/71/1 38/72/1
f 40/73/5 36/74/5 35/75/5 39/76/5
f 39/77/3 35/78/3 33/79/3 37/80/3
f 34/66/4 33/79/4 35/78/4 36/67/4
f 38/65/2 40/68/2 39/77/2 37/80/2
f 46/81/4 48/82/4 44/83/4 42/84/4
f 45/85/1 46/86/1 42/87/1 41/88/1
f 47/89/2 45/90/2 41/91/2 43/92/2
f 54/93/4 56/94/4 52/95/4 50/96/4
f 53/97/1 54/98/1 50/99/1 49/100/1
f 55/101/2 53/102/2 49/103/2 51/104/2
f 62/105/7 64/106/7 60/107/7 58/108/7
f 61/109/1 62/110/1 58/111/1 57/112/1
f 63/113/8 61/114/8 57/115/8 59/116/8
f 70/117/9 72/118/9 68/119/9 66/120/9
f 69/121/1 70/122/1 66/123/1 65/124/1
f 71/125/10 69/126/10 65/127/10 67/128/10
f 52/129/5 56/130/5 55/131/5 51/132/5
f 60/133/5 64/134/5 63/135/5 59/136/5
f 68/137/5 72/138/5 71/139/5 67/140/5
f 44/141/5 48/142/5 47/143/5 43/144/5
